G04*
G04 #@! TF.GenerationSoftware,Altium Limited,Altium Designer,22.8.2 (66)*
G04*
G04 Layer_Physical_Order=1*
G04 Layer_Color=255*
%FSLAX25Y25*%
%MOIN*%
G70*
G04*
G04 #@! TF.SameCoordinates,5B850A69-A84A-478A-A9FA-D5DC90572E9C*
G04*
G04*
G04 #@! TF.FilePolarity,Positive*
G04*
G01*
G75*
%ADD13C,0.01000*%
%ADD26C,0.01500*%
%ADD27C,0.15748*%
%ADD28C,0.05937*%
%ADD29R,0.05937X0.05937*%
%ADD30C,0.04449*%
%ADD31R,0.04449X0.04449*%
%ADD32C,0.05512*%
%ADD33C,0.04528*%
%ADD34C,0.04724*%
%ADD35R,0.04488X0.04488*%
%ADD36C,0.04488*%
%ADD37R,0.07146X0.07146*%
%ADD38C,0.07146*%
D13*
X295158Y190945D02*
X369245D01*
X261693Y224409D02*
X295158Y190945D01*
X369245D02*
X372900Y194600D01*
X459961Y314843D02*
X466200Y308603D01*
X442500Y244272D02*
X448701Y238071D01*
X330381Y361181D02*
X357087D01*
X306600Y337400D02*
X330381Y361181D01*
X246600Y337400D02*
X306600D01*
X234200Y349800D02*
X246600Y337400D01*
X205200Y349800D02*
X234200D01*
X205200Y297124D02*
Y349800D01*
Y297124D02*
X246384Y255939D01*
X269533D01*
X301063Y224409D01*
X323360Y280081D02*
X339661Y263780D01*
X323360Y280081D02*
Y313706D01*
X357087Y347433D01*
Y351181D01*
X301063Y303150D02*
X308650D01*
X345500Y340000D01*
X346100Y345490D01*
X355536Y354925D01*
X359000D01*
X360831Y353095D01*
Y334925D02*
Y353095D01*
X357087Y331181D02*
X360831Y334925D01*
X340433Y342520D02*
Y348801D01*
X348557Y356925D01*
X360000D01*
X362831Y354095D01*
Y326925D02*
Y354095D01*
X357087Y321181D02*
X362831Y326925D01*
X301063Y342520D02*
X323543Y365000D01*
X358756D01*
X364831Y358925D01*
Y318925D02*
Y358925D01*
X357087Y311181D02*
X364831Y318925D01*
X222323Y263780D02*
X253502Y232600D01*
X266329D01*
X282936Y215993D01*
X309568D01*
X324587Y231012D01*
X344688D01*
X347342Y228358D01*
Y204858D02*
Y228358D01*
Y204858D02*
X354800Y197400D01*
X359400D01*
X364831Y202831D01*
Y223476D01*
X357087Y231220D02*
X364831Y223476D01*
X493953Y232228D02*
X497638Y228543D01*
X474118Y232228D02*
X493953D01*
X469961Y228071D02*
X474118Y232228D01*
X388347Y291181D02*
X392800Y295635D01*
Y301100D01*
X396900Y305200D01*
X425587D01*
X429803Y300984D01*
X416019Y307200D02*
X429803Y320984D01*
X394365Y307200D02*
X416019D01*
X388347Y301181D02*
X394365Y307200D01*
X388347Y341181D02*
X390901Y338626D01*
X392014D01*
X394640Y336000D01*
X431600D01*
X433600Y334000D01*
Y314781D02*
Y334000D01*
X429803Y310984D02*
X433600Y314781D01*
X396759Y309200D02*
X398543Y310984D01*
X391700Y309200D02*
X396759D01*
X389900Y307400D02*
X391700Y309200D01*
X386000Y307400D02*
X389900D01*
X384600Y308800D02*
X386000Y307400D01*
X384600Y308800D02*
Y324000D01*
X388000Y327400D01*
X390000D01*
X392600Y330000D01*
Y335200D01*
X391600Y336200D02*
X392600Y335200D01*
X387200Y336200D02*
X391600D01*
X384602Y338798D02*
X387200Y336200D01*
X384602Y338798D02*
Y347437D01*
X388347Y351181D01*
Y211220D02*
X394267Y205300D01*
X399200D01*
X401900Y208000D01*
Y224000D01*
X398424Y227476D02*
X401900Y224000D01*
X386000Y227476D02*
X398424D01*
X384602Y228874D02*
X386000Y227476D01*
X384602Y228874D02*
Y243002D01*
X386600Y245000D01*
X392100D01*
X394400Y242700D01*
Y239000D02*
Y242700D01*
Y239000D02*
X396000Y237400D01*
X413600D01*
X425300Y225700D01*
Y220000D02*
Y225700D01*
Y220000D02*
X427900Y217400D01*
X432000D01*
X433200Y218600D01*
Y227430D01*
X429410Y231220D02*
X433200Y227430D01*
X380602Y253476D02*
X388347Y261220D01*
X380602Y221998D02*
Y253476D01*
Y221998D02*
X385124Y217476D01*
X394405D01*
X398150Y221220D01*
X466200Y308603D02*
X469961Y304843D01*
X466200Y308603D02*
Y318000D01*
X467900Y319700D01*
X484500D01*
X489900Y314300D01*
Y299200D02*
Y314300D01*
X482000Y291300D02*
X489900Y299200D01*
X477800Y291300D02*
X482000D01*
X475100Y294000D02*
X477800Y291300D01*
X475100Y294000D02*
Y296000D01*
X472500Y298600D02*
X475100Y296000D01*
X467800Y298600D02*
X472500D01*
X466200Y297000D02*
X467800Y298600D01*
X466200Y287304D02*
Y297000D01*
Y287304D02*
X479095Y274409D01*
X438701Y314843D02*
X459961D01*
X426500Y241220D02*
X429410D01*
X412720Y255000D02*
X426500Y241220D01*
X385600Y255000D02*
X412720D01*
X382602Y252002D02*
X385600Y255000D01*
X382602Y226965D02*
Y252002D01*
Y226965D02*
X388347Y221220D01*
X398543Y360984D02*
X403684D01*
X411000Y368300D01*
Y371300D01*
X410300Y372000D02*
X411000Y371300D01*
X376500Y372000D02*
X410300D01*
X372614Y368114D02*
X376500Y372000D01*
X372614Y284000D02*
Y368114D01*
Y284000D02*
X378217Y278397D01*
X393637D01*
X394400Y277634D01*
Y267900D02*
Y277634D01*
Y267900D02*
X396000Y266300D01*
X409700D01*
X419000Y257000D01*
X430000D01*
X434900Y252100D01*
Y247179D02*
Y252100D01*
Y247179D02*
X435134Y246945D01*
Y241638D02*
Y246945D01*
Y241638D02*
X438701Y238071D01*
X378602Y261476D02*
X388347Y271220D01*
X378602Y220000D02*
Y261476D01*
Y220000D02*
X383602Y215000D01*
X394370D01*
X398150Y211220D01*
X469047Y192000D02*
X478268Y201220D01*
X387500Y192000D02*
X469047D01*
X376600Y202900D02*
X387500Y192000D01*
X376600Y202900D02*
Y268000D01*
X383600Y275000D01*
X390000D01*
X392100Y272900D01*
Y259700D02*
Y272900D01*
Y259700D02*
X394400Y257400D01*
X413800D01*
X425700Y245500D01*
X432000D01*
X433134Y244366D01*
Y238370D02*
Y244366D01*
Y238370D02*
X437158Y234346D01*
X441000D01*
X442500Y235846D01*
Y244272D01*
X438701Y248071D02*
X442500Y244272D01*
X483679Y288600D02*
X497638Y302559D01*
X476203Y288600D02*
X483679D01*
X469961Y294843D02*
X476203Y288600D01*
X469961Y248071D02*
X476190Y254300D01*
X494300D01*
X504000Y244600D01*
Y217800D02*
Y244600D01*
X492800Y206600D02*
X504000Y217800D01*
X443085Y206600D02*
X492800D01*
X438268Y211417D02*
X443085Y206600D01*
X412284Y290984D02*
X429803D01*
X406400Y285100D02*
X412284Y290984D01*
X380100Y285100D02*
X406400D01*
X377900Y287300D02*
X380100Y285100D01*
X377900Y287300D02*
Y360000D01*
X382900Y365000D01*
X390000D01*
X392091Y362909D01*
Y359491D02*
Y362909D01*
X390000Y357400D02*
X392091Y359491D01*
X388000Y357400D02*
X390000D01*
X382602Y352002D02*
X388000Y357400D01*
X382602Y336925D02*
Y352002D01*
Y336925D02*
X388347Y331181D01*
X394800Y297241D02*
X398543Y300984D01*
X394800Y290000D02*
Y297241D01*
X392200Y287400D02*
X394800Y290000D01*
X384600Y287400D02*
X392200D01*
X380602Y291398D02*
X384600Y287400D01*
X380602Y291398D02*
Y353437D01*
X388347Y361181D01*
X398150Y271220D02*
X410980D01*
X415600Y266600D01*
X442200D01*
X447600Y272000D01*
Y295944D01*
X438701Y304843D02*
X447600Y295944D01*
X414000Y216630D02*
X429410Y201220D01*
X414000Y216630D02*
Y229000D01*
X408000Y235000D02*
X414000Y229000D01*
X394567Y235000D02*
X408000D01*
X388347Y241220D02*
X394567Y235000D01*
X429410Y211220D02*
X433200Y207430D01*
Y198000D02*
Y207430D01*
X430400Y195200D02*
X433200Y198000D01*
X394367Y195200D02*
X430400D01*
X388347Y201220D02*
X394367Y195200D01*
X340433Y195467D02*
Y224409D01*
Y195467D02*
X341900Y194000D01*
X361200D01*
X367200Y200000D01*
Y261107D01*
X357087Y271220D02*
X367200Y261107D01*
X439095Y284252D02*
X442500Y287657D01*
Y297100D01*
X441000Y298600D02*
X442500Y297100D01*
X438000Y298600D02*
X441000D01*
X434900Y301700D02*
X438000Y298600D01*
X434900Y301700D02*
Y306800D01*
X438000Y309900D01*
X443700D01*
X452800Y300800D01*
X482000D01*
X484100Y302900D01*
Y307100D01*
X482000Y309200D02*
X484100Y307100D01*
X475603Y309200D02*
X482000D01*
X469961Y314843D02*
X475603Y309200D01*
X357087Y241220D02*
X362831Y246965D01*
Y254134D01*
X360000Y256965D02*
X362831Y254134D01*
X354035Y256965D02*
X360000D01*
X351300Y259700D02*
X354035Y256965D01*
X351300Y259700D02*
Y290737D01*
X356000Y295437D01*
X360268D01*
X362831Y298000D01*
Y304095D01*
X360000Y306925D02*
X362831Y304095D01*
X344209Y306925D02*
X360000D01*
X340433Y303150D02*
X344209Y306925D01*
X352611Y301181D02*
X357087D01*
X346000Y294571D02*
X352611Y301181D01*
X346000Y260500D02*
Y294571D01*
X344000Y258500D02*
X346000Y260500D01*
X322700Y258500D02*
X344000D01*
X246900Y334300D02*
X322700Y258500D01*
X240100Y334300D02*
X246900D01*
X226800Y347600D02*
X240100Y334300D01*
X207200Y347600D02*
X226800D01*
X207200Y318272D02*
Y347600D01*
Y318272D02*
X222323Y303150D01*
X357087Y201220D02*
X362831Y206965D01*
Y221169D01*
X356500Y227500D02*
X362831Y221169D01*
X354842Y227500D02*
X356500D01*
X353342Y229000D02*
X354842Y227500D01*
X353342Y229000D02*
Y244819D01*
X356000Y247476D01*
X359307D01*
X360831Y249000D01*
Y253134D01*
X359000Y254965D02*
X360831Y253134D01*
X354365Y254965D02*
X359000D01*
X353300Y253900D02*
X354365Y254965D01*
X319000Y253900D02*
X353300D01*
X264677Y308223D02*
X319000Y253900D01*
X246600Y308223D02*
X264677D01*
X246600Y292300D02*
Y308223D01*
Y292300D02*
X266800Y272100D01*
Y261500D02*
Y272100D01*
X264000Y258700D02*
X266800Y261500D01*
X246600Y258700D02*
X264000D01*
X246600D02*
Y267100D01*
X230000Y283700D02*
X246600Y267100D01*
X230000Y283700D02*
Y334842D01*
X222323Y342520D02*
X230000Y334842D01*
X240600Y284873D02*
X261693Y263780D01*
X240600Y284873D02*
Y308000D01*
X242900Y310300D01*
X265600D01*
X319400Y256500D01*
X346300D01*
X349200Y259400D01*
Y293300D01*
X353337Y297437D01*
X359268D01*
X360831Y299000D01*
Y303095D01*
X359000Y304925D02*
X360831Y303095D01*
X350849Y304925D02*
X359000D01*
X344000Y298077D02*
X350849Y304925D01*
X325360Y298077D02*
X344000D01*
X325360D02*
Y309455D01*
X357087Y341181D01*
X313622Y251220D02*
X357087D01*
X301063Y263780D02*
X313622Y251220D01*
X351342Y216965D02*
X357087Y211220D01*
X351342Y216965D02*
Y246965D01*
X351078Y247229D02*
X351342Y246965D01*
X296771Y247229D02*
X351078D01*
X261693Y282307D02*
X296771Y247229D01*
X261693Y282307D02*
Y303150D01*
X357087Y221220D02*
X359831Y218476D01*
Y214900D02*
Y218476D01*
Y214900D02*
X360831Y213900D01*
Y209000D02*
Y213900D01*
X359231Y207400D02*
X360831Y209000D01*
X354400Y207400D02*
X359231D01*
X349342Y212458D02*
X354400Y207400D01*
X349342Y212458D02*
Y238965D01*
X348807Y239500D02*
X349342Y238965D01*
X328100Y239500D02*
X348807D01*
X307900Y219300D02*
X328100Y239500D01*
X285900Y219300D02*
X307900D01*
X251700Y253500D02*
X285900Y219300D01*
X242577Y253500D02*
X251700D01*
X227177Y268900D02*
X242577Y253500D01*
X207200Y268900D02*
X227177D01*
X207200Y239532D02*
Y268900D01*
Y239532D02*
X222323Y224409D01*
X261693Y342520D02*
X293173Y374000D01*
X353756D01*
X366831Y360925D01*
Y295331D02*
Y360925D01*
X362681Y291181D02*
X366831Y295331D01*
X357087Y291181D02*
X362681D01*
X429410Y221220D02*
Y224490D01*
X406935Y246965D02*
X429410Y224490D01*
X392602Y246965D02*
X406935D01*
X388347Y251220D02*
X392602Y246965D01*
X353300Y265007D02*
X357087Y261220D01*
X353300Y265007D02*
Y274000D01*
X354400Y275100D01*
X368200D01*
X372900Y270400D01*
Y194600D02*
Y270400D01*
X448701Y238071D02*
X469961D01*
X414819Y316000D02*
X429803Y330984D01*
X393165Y316000D02*
X414819D01*
X388347Y311181D02*
X393165Y316000D01*
X439095Y274409D02*
Y284252D01*
X438268Y201220D02*
Y211417D01*
X393497Y320984D02*
X398543D01*
X393300Y321181D02*
X393497Y320984D01*
X388347Y321181D02*
X393300D01*
X388347Y231220D02*
X398150D01*
X475079Y304921D02*
X480315D01*
X475000Y304843D02*
X475079Y304921D01*
X469961Y304843D02*
X475000D01*
X475079Y237992D02*
X480315D01*
X475000Y238071D02*
X475079Y237992D01*
X469961Y238071D02*
X475000D01*
D26*
X472417Y348253D02*
X472638Y348032D01*
X472417Y348253D02*
Y359862D01*
X469961Y324843D02*
X470197Y324606D01*
X480315D01*
X409803Y340984D02*
X425819Y357000D01*
X461614Y228071D02*
X478268Y211417D01*
X438701Y228071D02*
X461614D01*
X429331Y281496D02*
X438701Y290866D01*
Y294843D01*
X468569Y352100D02*
X472638Y348032D01*
X460000Y352100D02*
X468569D01*
X457400Y354700D02*
X460000Y352100D01*
X457400Y354700D02*
Y362500D01*
X449034Y370866D02*
X457400Y362500D01*
X429724Y370866D02*
X449034D01*
X472638Y327519D02*
Y348032D01*
X469961Y324843D02*
X472638Y327519D01*
X398150Y251220D02*
X410470D01*
X425902Y235789D01*
X430983D01*
X438701Y228071D01*
X479095Y284252D02*
X483700Y279647D01*
Y261456D02*
Y279647D01*
X480315Y258071D02*
X483700Y261456D01*
X480315Y324606D02*
X484894D01*
X501800Y307700D01*
Y290300D02*
Y307700D01*
X495752Y284252D02*
X501800Y290300D01*
X479095Y284252D02*
X495752D01*
X478268Y211417D02*
X488767D01*
X501750Y224400D01*
Y232700D01*
X490450Y244000D02*
X501750Y232700D01*
X467900Y244000D02*
X490450D01*
X465900Y246000D02*
X467900Y244000D01*
X465900Y246000D02*
Y254010D01*
X469961Y258071D01*
X425819Y357000D02*
X429803Y360984D01*
X395500Y357000D02*
X425819D01*
X394500Y358000D02*
X395500Y357000D01*
X394500Y358000D02*
Y364000D01*
X390100Y368400D02*
X394500Y364000D01*
X378800Y368400D02*
X390100D01*
X375600Y365200D02*
X378800Y368400D01*
X375600Y286200D02*
Y365200D01*
Y286200D02*
X380000Y281800D01*
X401100D01*
X406200Y276700D01*
X424535D01*
X429331Y281496D01*
X398543Y340984D02*
X409803D01*
X429331Y276379D02*
Y281496D01*
Y276379D02*
X429410Y276300D01*
Y271220D02*
Y276300D01*
X429724Y365879D02*
Y370866D01*
Y365879D02*
X429803Y365800D01*
Y360984D02*
Y365800D01*
X469961Y258071D02*
X480315D01*
D27*
X496063Y368110D02*
D03*
X212598Y200787D02*
D03*
D28*
X442417Y359862D02*
D03*
X452417D02*
D03*
X462417D02*
D03*
D29*
X472417D02*
D03*
D30*
X469961Y258071D02*
D03*
Y248071D02*
D03*
Y238071D02*
D03*
Y228071D02*
D03*
X438701D02*
D03*
Y238071D02*
D03*
Y248071D02*
D03*
X469961Y324843D02*
D03*
Y314843D02*
D03*
Y304843D02*
D03*
Y294843D02*
D03*
X438701D02*
D03*
Y304843D02*
D03*
Y314843D02*
D03*
X398543Y350984D02*
D03*
Y340984D02*
D03*
Y330984D02*
D03*
Y320984D02*
D03*
Y310984D02*
D03*
Y300984D02*
D03*
Y290984D02*
D03*
X429803D02*
D03*
Y300984D02*
D03*
Y310984D02*
D03*
Y320984D02*
D03*
Y330984D02*
D03*
Y340984D02*
D03*
Y350984D02*
D03*
Y360984D02*
D03*
X429410Y271220D02*
D03*
Y261220D02*
D03*
Y251220D02*
D03*
Y241220D02*
D03*
Y231220D02*
D03*
Y221220D02*
D03*
Y211220D02*
D03*
Y201220D02*
D03*
X398150D02*
D03*
Y211220D02*
D03*
Y221220D02*
D03*
Y231220D02*
D03*
Y241220D02*
D03*
Y251220D02*
D03*
Y261220D02*
D03*
D31*
X438701Y258071D02*
D03*
Y324843D02*
D03*
X398543Y360984D02*
D03*
X398150Y271220D02*
D03*
D32*
X479095Y274409D02*
D03*
X439095D02*
D03*
Y284252D02*
D03*
X479095D02*
D03*
X478268Y201220D02*
D03*
X438268D02*
D03*
Y211417D02*
D03*
X478268D02*
D03*
D33*
X462795Y348032D02*
D03*
X472638D02*
D03*
X480315Y295079D02*
D03*
Y304921D02*
D03*
Y314764D02*
D03*
Y324606D02*
D03*
Y248228D02*
D03*
Y258071D02*
D03*
Y228150D02*
D03*
Y237992D02*
D03*
X429331Y281496D02*
D03*
X419488D02*
D03*
X429724Y370866D02*
D03*
X419882D02*
D03*
D34*
X497638Y302559D02*
D03*
Y332087D02*
D03*
X497638Y228543D02*
D03*
Y258071D02*
D03*
D35*
X388347Y291181D02*
D03*
Y201220D02*
D03*
D36*
Y301181D02*
D03*
Y311181D02*
D03*
Y321181D02*
D03*
Y331181D02*
D03*
Y341181D02*
D03*
Y351181D02*
D03*
Y361181D02*
D03*
X357087D02*
D03*
Y351181D02*
D03*
Y341181D02*
D03*
Y331181D02*
D03*
Y321181D02*
D03*
Y311181D02*
D03*
Y301181D02*
D03*
Y291181D02*
D03*
Y201220D02*
D03*
Y211220D02*
D03*
Y221220D02*
D03*
Y231220D02*
D03*
Y241220D02*
D03*
Y251220D02*
D03*
Y261220D02*
D03*
Y271220D02*
D03*
X388347D02*
D03*
Y261220D02*
D03*
Y251220D02*
D03*
Y241220D02*
D03*
Y231220D02*
D03*
Y221220D02*
D03*
Y211220D02*
D03*
D37*
X330433Y224409D02*
D03*
X291063D02*
D03*
X251693D02*
D03*
X329661Y263780D02*
D03*
X291063D02*
D03*
X251693D02*
D03*
X330433Y303150D02*
D03*
X291063D02*
D03*
X212323Y263780D02*
D03*
X330433Y342520D02*
D03*
X212323Y224409D02*
D03*
X291063Y342520D02*
D03*
X251693Y303150D02*
D03*
X212323D02*
D03*
Y342520D02*
D03*
X251693D02*
D03*
D38*
X340433Y224409D02*
D03*
X301063D02*
D03*
X261693D02*
D03*
X339661Y263780D02*
D03*
X301063D02*
D03*
X261693D02*
D03*
X340433Y303150D02*
D03*
X301063D02*
D03*
X222323Y263780D02*
D03*
X340433Y342520D02*
D03*
X222323Y224409D02*
D03*
X301063Y342520D02*
D03*
X261693Y303150D02*
D03*
X222323D02*
D03*
Y342520D02*
D03*
X261693D02*
D03*
M02*
