M48
;Layer_Color=9474304
;FILE_FORMAT=2:4
INCH,TZ
;TYPE=PLATED
T1F00S00C0.0291
T2F00S00C0.0307
T3F00S00C0.0315
T4F00S00C0.0335
T5F00S00C0.0394
T6F00S00C0.0476
T7F00S00C0.1339
%
T01
X35709Y20122
Y21122
Y22122
Y23122
Y24122
Y25122
Y26122
Y27122
Y29118
Y30118
Y31118
X38835
Y30118
Y29118
Y27122
Y26122
Y25122
Y24122
Y23122
Y22122
Y21122
Y20122
Y32118
Y33118
Y34118
Y35118
Y36118
X35709
Y35118
Y34118
Y33118
Y32118
T02
X46996Y22807
Y23807
Y24807
Y25807
Y29484
Y30484
X43870
Y29484
X42980Y29098
Y30098
Y31098
X39854
Y30098
Y29098
X39815Y27122
Y26122
Y25122
Y24122
Y23122
Y22122
Y21122
Y20122
X42941
Y21122
Y22122
Y23122
Y24122
Y25122
Y26122
Y27122
X43870Y25807
Y24807
Y23807
Y22807
Y31484
Y32484
X42980Y32098
Y33098
Y34098
Y35098
Y36098
X39854
Y35098
Y34098
Y33098
Y32098
X46996Y32484
Y31484
T03
X48032Y22815
Y23799
Y24823
Y25807
Y29508
Y30492
X42933Y28150
X41949
X41988Y37087
X42972
X46280Y34803
X47264
X48032Y32461
Y31476
T04
X47827Y20122
Y21142
X49764Y22854
Y25807
X47909Y27441
Y28425
X49764Y30256
X43909Y28425
Y27441
X43827Y21142
Y20122
X49764Y33209
T05
X44242Y35986
X45242
X46242
X47242
T06
X33043Y22441
X34043
X33966Y26378
X32966
X33043Y30315
X34043
X30106
X29106
X26169
X25169
X22232
X21232
Y26378
X22232
X25169
X26169
X29106
X30106
Y22441
X29106
X26169
X25169
X22232
X21232
Y34252
X22232
X25169
X26169
X29106
X30106
X33043
X34043
T07
X21260Y20079
X49606Y36811
M30
