G04*
G04 #@! TF.GenerationSoftware,Altium Limited,Altium Designer,22.8.2 (66)*
G04*
G04 Layer_Color=12632256*
%FSLAX25Y25*%
%MOIN*%
G70*
G04*
G04 #@! TF.SameCoordinates,5B850A69-A84A-478A-A9FA-D5DC90572E9C*
G04*
G04*
G04 #@! TF.FilePolarity,Positive*
G04*
G01*
G75*
%ADD27C,0.15748*%
%ADD28C,0.05937*%
%ADD29R,0.05937X0.05937*%
%ADD30C,0.04449*%
%ADD31R,0.04449X0.04449*%
%ADD32C,0.05512*%
%ADD33C,0.04528*%
%ADD34C,0.04724*%
%ADD35R,0.04488X0.04488*%
%ADD36C,0.04488*%
%ADD37R,0.07146X0.07146*%
%ADD38C,0.07146*%
D27*
X496063Y368110D02*
D03*
X212598Y200787D02*
D03*
D28*
X442417Y359862D02*
D03*
X452417D02*
D03*
X462417D02*
D03*
D29*
X472417D02*
D03*
D30*
X469961Y258071D02*
D03*
Y248071D02*
D03*
Y238071D02*
D03*
Y228071D02*
D03*
X438701D02*
D03*
Y238071D02*
D03*
Y248071D02*
D03*
X469961Y324843D02*
D03*
Y314843D02*
D03*
Y304843D02*
D03*
Y294843D02*
D03*
X438701D02*
D03*
Y304843D02*
D03*
Y314843D02*
D03*
X398543Y350984D02*
D03*
Y340984D02*
D03*
Y330984D02*
D03*
Y320984D02*
D03*
Y310984D02*
D03*
Y300984D02*
D03*
Y290984D02*
D03*
X429803D02*
D03*
Y300984D02*
D03*
Y310984D02*
D03*
Y320984D02*
D03*
Y330984D02*
D03*
Y340984D02*
D03*
Y350984D02*
D03*
Y360984D02*
D03*
X429410Y271220D02*
D03*
Y261220D02*
D03*
Y251220D02*
D03*
Y241220D02*
D03*
Y231220D02*
D03*
Y221220D02*
D03*
Y211220D02*
D03*
Y201220D02*
D03*
X398150D02*
D03*
Y211220D02*
D03*
Y221220D02*
D03*
Y231220D02*
D03*
Y241220D02*
D03*
Y251220D02*
D03*
Y261220D02*
D03*
D31*
X438701Y258071D02*
D03*
Y324843D02*
D03*
X398543Y360984D02*
D03*
X398150Y271220D02*
D03*
D32*
X479095Y274409D02*
D03*
X439095D02*
D03*
Y284252D02*
D03*
X479095D02*
D03*
X478268Y201220D02*
D03*
X438268D02*
D03*
Y211417D02*
D03*
X478268D02*
D03*
D33*
X462795Y348032D02*
D03*
X472638D02*
D03*
X480315Y295079D02*
D03*
Y304921D02*
D03*
Y314764D02*
D03*
Y324606D02*
D03*
Y248228D02*
D03*
Y258071D02*
D03*
Y228150D02*
D03*
Y237992D02*
D03*
X429331Y281496D02*
D03*
X419488D02*
D03*
X429724Y370866D02*
D03*
X419882D02*
D03*
D34*
X497638Y302559D02*
D03*
Y332087D02*
D03*
X497638Y228543D02*
D03*
Y258071D02*
D03*
D35*
X388347Y291181D02*
D03*
Y201220D02*
D03*
D36*
Y301181D02*
D03*
Y311181D02*
D03*
Y321181D02*
D03*
Y331181D02*
D03*
Y341181D02*
D03*
Y351181D02*
D03*
Y361181D02*
D03*
X357087D02*
D03*
Y351181D02*
D03*
Y341181D02*
D03*
Y331181D02*
D03*
Y321181D02*
D03*
Y311181D02*
D03*
Y301181D02*
D03*
Y291181D02*
D03*
Y201220D02*
D03*
Y211220D02*
D03*
Y221220D02*
D03*
Y231220D02*
D03*
Y241220D02*
D03*
Y251220D02*
D03*
Y261220D02*
D03*
Y271220D02*
D03*
X388347D02*
D03*
Y261220D02*
D03*
Y251220D02*
D03*
Y241220D02*
D03*
Y231220D02*
D03*
Y221220D02*
D03*
Y211220D02*
D03*
D37*
X330433Y224409D02*
D03*
X291063D02*
D03*
X251693D02*
D03*
X329661Y263780D02*
D03*
X291063D02*
D03*
X251693D02*
D03*
X330433Y303150D02*
D03*
X291063D02*
D03*
X212323Y263780D02*
D03*
X330433Y342520D02*
D03*
X212323Y224409D02*
D03*
X291063Y342520D02*
D03*
X251693Y303150D02*
D03*
X212323D02*
D03*
Y342520D02*
D03*
X251693D02*
D03*
D38*
X340433Y224409D02*
D03*
X301063D02*
D03*
X261693D02*
D03*
X339661Y263780D02*
D03*
X301063D02*
D03*
X261693D02*
D03*
X340433Y303150D02*
D03*
X301063D02*
D03*
X222323Y263780D02*
D03*
X340433Y342520D02*
D03*
X222323Y224409D02*
D03*
X301063Y342520D02*
D03*
X261693Y303150D02*
D03*
X222323D02*
D03*
Y342520D02*
D03*
X261693D02*
D03*
M02*
