G04*
G04 #@! TF.GenerationSoftware,Altium Limited,Altium Designer,22.8.2 (66)*
G04*
G04 Layer_Color=16711935*
%FSLAX25Y25*%
%MOIN*%
G70*
G04*
G04 #@! TF.SameCoordinates,5B850A69-A84A-478A-A9FA-D5DC90572E9C*
G04*
G04*
G04 #@! TF.FilePolarity,Positive*
G04*
G01*
G75*
%ADD10C,0.01575*%
%ADD11C,0.00787*%
%ADD12C,0.00500*%
D10*
X473283Y360019D02*
X472739Y360768D01*
X471858Y360482D01*
Y359556D01*
X472739Y359270D01*
X473283Y360019D01*
D11*
X434902Y258071D02*
X434114D01*
X434902D01*
X434902Y324843D02*
X434114D01*
X434902D01*
X394744Y360984D02*
X393957D01*
X394744D01*
X392933Y291181D02*
X392146D01*
X392933D01*
X394350Y271220D02*
X393563D01*
X394350D01*
X392933Y201220D02*
X392146D01*
X392933D01*
X323228Y224410D02*
X322441D01*
X323228D01*
X283858D02*
X283071D01*
X283858D01*
X244488D02*
X243701D01*
X244488D01*
X322457Y263779D02*
X321669D01*
X322457D01*
X283858D02*
X283071D01*
X283858D01*
X244488D02*
X243701D01*
X244488D01*
X323228Y303150D02*
X322441D01*
X323228D01*
X283858D02*
X283071D01*
X283858D01*
X205118Y263779D02*
X204331D01*
X205118D01*
X323228Y342520D02*
X322441D01*
X323228D01*
X205118Y224410D02*
X204331D01*
X205118D01*
X283858Y342520D02*
X283071D01*
X283858D01*
X244488Y303150D02*
X243701D01*
X244488D01*
X205118D02*
X204331D01*
X205118D01*
Y342520D02*
X204331D01*
X205118D01*
X244488D02*
X243701D01*
X244488D01*
D12*
X325590Y218244D02*
X326157Y217418D01*
X326793Y216645D01*
X327493Y215928D01*
X328252Y215275D01*
X329064Y214689D01*
X329924Y214175D01*
X330824Y213737D01*
X331759Y213378D01*
X332721Y213101D01*
X333704Y212908D01*
X334700Y212800D01*
X335701Y212777D01*
X336700Y212842D01*
X337690Y212991D01*
X338664Y213226D01*
X339614Y213543D01*
X340533Y213941D01*
X341414Y214416D01*
X342252Y214965D01*
X343039Y215584D01*
X343770Y216269D01*
X344439Y217014D01*
X345042Y217814D01*
X345573Y218663D01*
X346030Y219554D01*
X346408Y220481D01*
X346706Y221437D01*
X346920Y222416D01*
X347049Y223409D01*
X347092Y224409D01*
X347049Y225410D01*
X346920Y226403D01*
X346706Y227381D01*
X346409Y228338D01*
X346030Y229265D01*
X345573Y230156D01*
X345042Y231005D01*
X344439Y231805D01*
X343770Y232550D01*
X343039Y233234D01*
X342252Y233854D01*
X341415Y234403D01*
X340533Y234878D01*
X339614Y235276D01*
X338664Y235593D01*
X337690Y235828D01*
X336700Y235977D01*
X335701Y236041D01*
X334700Y236019D01*
X333704Y235911D01*
X332721Y235718D01*
X331759Y235441D01*
X330824Y235082D01*
X329924Y234644D01*
X329064Y234130D01*
X328252Y233544D01*
X327493Y232891D01*
X326793Y232174D01*
X326157Y231401D01*
X325591Y230575D01*
X286221Y218244D02*
X286787Y217418D01*
X287423Y216645D01*
X288123Y215928D01*
X288882Y215275D01*
X289694Y214689D01*
X290553Y214175D01*
X291454Y213737D01*
X292389Y213378D01*
X293351Y213101D01*
X294334Y212908D01*
X295329Y212800D01*
X296331Y212777D01*
X297330Y212842D01*
X298320Y212991D01*
X299294Y213226D01*
X300244Y213543D01*
X301163Y213941D01*
X302045Y214416D01*
X302882Y214965D01*
X303669Y215584D01*
X304400Y216269D01*
X305069Y217014D01*
X305672Y217814D01*
X306203Y218663D01*
X306660Y219554D01*
X307038Y220481D01*
X307336Y221437D01*
X307550Y222416D01*
X307679Y223409D01*
X307722Y224409D01*
X307679Y225410D01*
X307550Y226403D01*
X307336Y227381D01*
X307038Y228338D01*
X306660Y229265D01*
X306203Y230156D01*
X305672Y231005D01*
X305069Y231805D01*
X304400Y232550D01*
X303669Y233234D01*
X302882Y233854D01*
X302045Y234403D01*
X301163Y234878D01*
X300244Y235276D01*
X299294Y235593D01*
X298321Y235828D01*
X297330Y235977D01*
X296331Y236041D01*
X295330Y236019D01*
X294334Y235911D01*
X293352Y235718D01*
X292389Y235441D01*
X291454Y235082D01*
X290554Y234644D01*
X289694Y234130D01*
X288882Y233544D01*
X288123Y232891D01*
X287423Y232174D01*
X286787Y231401D01*
X286221Y230575D01*
X246850Y218244D02*
X247417Y217418D01*
X248053Y216645D01*
X248753Y215928D01*
X249512Y215275D01*
X250324Y214689D01*
X251183Y214175D01*
X252084Y213737D01*
X253019Y213378D01*
X253981Y213101D01*
X254964Y212908D01*
X255960Y212800D01*
X256961Y212777D01*
X257960Y212842D01*
X258950Y212991D01*
X259924Y213226D01*
X260874Y213543D01*
X261793Y213941D01*
X262674Y214416D01*
X263512Y214965D01*
X264299Y215584D01*
X265030Y216269D01*
X265699Y217014D01*
X266301Y217814D01*
X266833Y218663D01*
X267290Y219554D01*
X267668Y220481D01*
X267966Y221437D01*
X268179Y222416D01*
X268308Y223409D01*
X268352Y224409D01*
X268308Y225410D01*
X268179Y226403D01*
X267966Y227381D01*
X267668Y228338D01*
X267290Y229265D01*
X266833Y230156D01*
X266301Y231005D01*
X265699Y231805D01*
X265030Y232550D01*
X264299Y233234D01*
X263512Y233854D01*
X262674Y234403D01*
X261793Y234878D01*
X260874Y235276D01*
X259924Y235593D01*
X258950Y235828D01*
X257960Y235977D01*
X256961Y236041D01*
X255960Y236019D01*
X254964Y235911D01*
X253981Y235718D01*
X253019Y235441D01*
X252084Y235082D01*
X251184Y234644D01*
X250324Y234130D01*
X249512Y233544D01*
X248753Y232891D01*
X248053Y232174D01*
X247417Y231401D01*
X246850Y230575D01*
X324819Y257614D02*
X325386Y256788D01*
X326021Y256015D01*
X326721Y255298D01*
X327480Y254645D01*
X328292Y254059D01*
X329152Y253545D01*
X330052Y253107D01*
X330987Y252748D01*
X331950Y252471D01*
X332932Y252278D01*
X333928Y252170D01*
X334929Y252148D01*
X335929Y252212D01*
X336919Y252361D01*
X337892Y252596D01*
X338842Y252913D01*
X339761Y253311D01*
X340643Y253786D01*
X341480Y254335D01*
X342267Y254955D01*
X342998Y255639D01*
X343667Y256384D01*
X344270Y257184D01*
X344802Y258033D01*
X345258Y258924D01*
X345637Y259851D01*
X345934Y260807D01*
X346148Y261786D01*
X346277Y262779D01*
X346320Y263779D01*
X346277Y264780D01*
X346148Y265773D01*
X345934Y266752D01*
X345637Y267708D01*
X345258Y268635D01*
X344802Y269526D01*
X344270Y270375D01*
X343667Y271175D01*
X342998Y271920D01*
X342267Y272604D01*
X341480Y273224D01*
X340643Y273773D01*
X339761Y274248D01*
X338842Y274646D01*
X337893Y274963D01*
X336919Y275198D01*
X335929Y275347D01*
X334929Y275412D01*
X333928Y275389D01*
X332932Y275281D01*
X331950Y275088D01*
X330988Y274811D01*
X330053Y274452D01*
X329152Y274014D01*
X328292Y273500D01*
X327480Y272914D01*
X326721Y272261D01*
X326021Y271545D01*
X325386Y270771D01*
X324819Y269945D01*
X286221Y257614D02*
X286787Y256788D01*
X287423Y256015D01*
X288123Y255298D01*
X288882Y254645D01*
X289694Y254059D01*
X290553Y253545D01*
X291454Y253107D01*
X292389Y252748D01*
X293351Y252471D01*
X294334Y252278D01*
X295329Y252170D01*
X296331Y252148D01*
X297330Y252212D01*
X298320Y252361D01*
X299294Y252596D01*
X300244Y252913D01*
X301163Y253311D01*
X302045Y253786D01*
X302882Y254335D01*
X303669Y254955D01*
X304400Y255639D01*
X305069Y256384D01*
X305672Y257184D01*
X306203Y258033D01*
X306660Y258924D01*
X307038Y259851D01*
X307336Y260807D01*
X307550Y261786D01*
X307679Y262779D01*
X307722Y263779D01*
X307679Y264780D01*
X307550Y265773D01*
X307336Y266752D01*
X307038Y267708D01*
X306660Y268635D01*
X306203Y269526D01*
X305672Y270375D01*
X305069Y271175D01*
X304400Y271920D01*
X303669Y272604D01*
X302882Y273224D01*
X302045Y273773D01*
X301163Y274248D01*
X300244Y274646D01*
X299294Y274963D01*
X298321Y275198D01*
X297330Y275347D01*
X296331Y275412D01*
X295330Y275389D01*
X294334Y275281D01*
X293352Y275088D01*
X292389Y274811D01*
X291454Y274452D01*
X290554Y274014D01*
X289694Y273500D01*
X288882Y272914D01*
X288123Y272261D01*
X287423Y271545D01*
X286787Y270771D01*
X286221Y269945D01*
X246850Y257614D02*
X247417Y256788D01*
X248053Y256015D01*
X248753Y255298D01*
X249512Y254645D01*
X250324Y254059D01*
X251183Y253545D01*
X252084Y253107D01*
X253019Y252748D01*
X253981Y252471D01*
X254964Y252278D01*
X255960Y252170D01*
X256961Y252148D01*
X257960Y252212D01*
X258950Y252361D01*
X259924Y252596D01*
X260874Y252913D01*
X261793Y253311D01*
X262674Y253786D01*
X263512Y254335D01*
X264299Y254955D01*
X265030Y255639D01*
X265699Y256384D01*
X266301Y257184D01*
X266833Y258033D01*
X267290Y258924D01*
X267668Y259851D01*
X267966Y260807D01*
X268179Y261786D01*
X268308Y262779D01*
X268352Y263779D01*
X268308Y264780D01*
X268179Y265773D01*
X267966Y266752D01*
X267668Y267708D01*
X267290Y268635D01*
X266833Y269526D01*
X266301Y270375D01*
X265699Y271175D01*
X265030Y271920D01*
X264299Y272604D01*
X263512Y273224D01*
X262674Y273773D01*
X261793Y274248D01*
X260874Y274646D01*
X259924Y274963D01*
X258950Y275198D01*
X257960Y275347D01*
X256961Y275412D01*
X255960Y275389D01*
X254964Y275281D01*
X253981Y275088D01*
X253019Y274811D01*
X252084Y274452D01*
X251184Y274014D01*
X250324Y273500D01*
X249512Y272914D01*
X248753Y272261D01*
X248053Y271545D01*
X247417Y270771D01*
X246850Y269945D01*
X325590Y296984D02*
X326157Y296159D01*
X326793Y295385D01*
X327493Y294668D01*
X328252Y294015D01*
X329064Y293429D01*
X329924Y292915D01*
X330824Y292477D01*
X331759Y292119D01*
X332721Y291841D01*
X333704Y291648D01*
X334700Y291540D01*
X335701Y291518D01*
X336700Y291582D01*
X337690Y291731D01*
X338664Y291966D01*
X339614Y292283D01*
X340533Y292681D01*
X341414Y293156D01*
X342252Y293705D01*
X343039Y294325D01*
X343770Y295009D01*
X344439Y295754D01*
X345042Y296554D01*
X345573Y297403D01*
X346030Y298294D01*
X346408Y299221D01*
X346706Y300178D01*
X346920Y301156D01*
X347049Y302149D01*
X347092Y303150D01*
X347049Y304150D01*
X346920Y305143D01*
X346706Y306121D01*
X346409Y307078D01*
X346030Y308005D01*
X345573Y308896D01*
X345042Y309745D01*
X344439Y310545D01*
X343770Y311290D01*
X343039Y311975D01*
X342252Y312594D01*
X341415Y313143D01*
X340533Y313618D01*
X339614Y314016D01*
X338664Y314333D01*
X337690Y314568D01*
X336700Y314718D01*
X335701Y314782D01*
X334700Y314759D01*
X333704Y314651D01*
X332721Y314458D01*
X331759Y314181D01*
X330824Y313822D01*
X329924Y313384D01*
X329064Y312870D01*
X328252Y312284D01*
X327493Y311631D01*
X326793Y310915D01*
X326157Y310141D01*
X325591Y309315D01*
X286221Y296984D02*
X286787Y296159D01*
X287423Y295385D01*
X288123Y294668D01*
X288882Y294015D01*
X289694Y293429D01*
X290553Y292915D01*
X291454Y292477D01*
X292389Y292119D01*
X293351Y291841D01*
X294334Y291648D01*
X295329Y291540D01*
X296331Y291518D01*
X297330Y291582D01*
X298320Y291731D01*
X299294Y291966D01*
X300244Y292283D01*
X301163Y292681D01*
X302045Y293156D01*
X302882Y293705D01*
X303669Y294325D01*
X304400Y295009D01*
X305069Y295754D01*
X305672Y296554D01*
X306203Y297403D01*
X306660Y298294D01*
X307038Y299221D01*
X307336Y300178D01*
X307550Y301156D01*
X307679Y302149D01*
X307722Y303150D01*
X307679Y304150D01*
X307550Y305143D01*
X307336Y306121D01*
X307038Y307078D01*
X306660Y308005D01*
X306203Y308896D01*
X305672Y309745D01*
X305069Y310545D01*
X304400Y311290D01*
X303669Y311975D01*
X302882Y312594D01*
X302045Y313143D01*
X301163Y313618D01*
X300244Y314016D01*
X299294Y314333D01*
X298321Y314568D01*
X297330Y314718D01*
X296331Y314782D01*
X295330Y314759D01*
X294334Y314651D01*
X293352Y314458D01*
X292389Y314181D01*
X291454Y313822D01*
X290554Y313384D01*
X289694Y312870D01*
X288882Y312284D01*
X288123Y311631D01*
X287423Y310915D01*
X286787Y310141D01*
X286221Y309315D01*
X207480Y257614D02*
X208047Y256788D01*
X208683Y256015D01*
X209383Y255298D01*
X210141Y254645D01*
X210954Y254059D01*
X211813Y253545D01*
X212714Y253107D01*
X213649Y252748D01*
X214611Y252471D01*
X215594Y252278D01*
X216589Y252170D01*
X217591Y252148D01*
X218590Y252212D01*
X219580Y252361D01*
X220554Y252596D01*
X221504Y252913D01*
X222423Y253311D01*
X223304Y253786D01*
X224142Y254335D01*
X224929Y254955D01*
X225659Y255639D01*
X226329Y256384D01*
X226931Y257184D01*
X227463Y258033D01*
X227920Y258924D01*
X228298Y259851D01*
X228595Y260807D01*
X228809Y261786D01*
X228938Y262779D01*
X228981Y263779D01*
X228938Y264780D01*
X228809Y265773D01*
X228595Y266752D01*
X228298Y267708D01*
X227920Y268635D01*
X227463Y269526D01*
X226932Y270375D01*
X226329Y271175D01*
X225660Y271920D01*
X224929Y272604D01*
X224142Y273224D01*
X223304Y273773D01*
X222423Y274248D01*
X221504Y274646D01*
X220554Y274963D01*
X219580Y275198D01*
X218590Y275347D01*
X217591Y275412D01*
X216589Y275389D01*
X215594Y275281D01*
X214611Y275088D01*
X213649Y274811D01*
X212714Y274452D01*
X211813Y274014D01*
X210954Y273500D01*
X210141Y272914D01*
X209383Y272261D01*
X208683Y271545D01*
X208047Y270771D01*
X207480Y269945D01*
X325590Y336354D02*
X326157Y335529D01*
X326793Y334755D01*
X327493Y334038D01*
X328252Y333385D01*
X329064Y332799D01*
X329924Y332285D01*
X330824Y331847D01*
X331759Y331488D01*
X332721Y331211D01*
X333704Y331018D01*
X334700Y330910D01*
X335701Y330888D01*
X336700Y330952D01*
X337690Y331101D01*
X338664Y331336D01*
X339614Y331653D01*
X340533Y332051D01*
X341414Y332526D01*
X342252Y333075D01*
X343039Y333695D01*
X343770Y334379D01*
X344439Y335124D01*
X345042Y335924D01*
X345573Y336773D01*
X346030Y337664D01*
X346408Y338591D01*
X346706Y339548D01*
X346920Y340526D01*
X347049Y341519D01*
X347092Y342520D01*
X347049Y343520D01*
X346920Y344513D01*
X346706Y345492D01*
X346409Y346448D01*
X346030Y347375D01*
X345573Y348266D01*
X345042Y349115D01*
X344439Y349915D01*
X343770Y350660D01*
X343039Y351345D01*
X342252Y351964D01*
X341415Y352513D01*
X340533Y352989D01*
X339614Y353386D01*
X338664Y353703D01*
X337690Y353938D01*
X336700Y354088D01*
X335701Y354152D01*
X334700Y354130D01*
X333704Y354021D01*
X332721Y353828D01*
X331759Y353551D01*
X330824Y353192D01*
X329924Y352754D01*
X329064Y352240D01*
X328252Y351655D01*
X327493Y351001D01*
X326793Y350285D01*
X326157Y349511D01*
X325591Y348685D01*
X207480Y218244D02*
X208047Y217418D01*
X208683Y216645D01*
X209383Y215928D01*
X210141Y215275D01*
X210954Y214689D01*
X211813Y214175D01*
X212714Y213737D01*
X213649Y213378D01*
X214611Y213101D01*
X215594Y212908D01*
X216589Y212800D01*
X217591Y212777D01*
X218590Y212842D01*
X219580Y212991D01*
X220554Y213226D01*
X221504Y213543D01*
X222423Y213941D01*
X223304Y214416D01*
X224142Y214965D01*
X224929Y215584D01*
X225659Y216269D01*
X226329Y217014D01*
X226931Y217814D01*
X227463Y218663D01*
X227920Y219554D01*
X228298Y220481D01*
X228595Y221437D01*
X228809Y222416D01*
X228938Y223409D01*
X228981Y224409D01*
X228938Y225410D01*
X228809Y226403D01*
X228595Y227381D01*
X228298Y228338D01*
X227920Y229265D01*
X227463Y230156D01*
X226932Y231005D01*
X226329Y231805D01*
X225660Y232550D01*
X224929Y233234D01*
X224142Y233854D01*
X223304Y234403D01*
X222423Y234878D01*
X221504Y235276D01*
X220554Y235593D01*
X219580Y235828D01*
X218590Y235977D01*
X217591Y236041D01*
X216589Y236019D01*
X215594Y235911D01*
X214611Y235718D01*
X213649Y235441D01*
X212714Y235082D01*
X211813Y234644D01*
X210954Y234130D01*
X210141Y233544D01*
X209383Y232891D01*
X208683Y232174D01*
X208047Y231401D01*
X207480Y230575D01*
X286221Y336354D02*
X286787Y335529D01*
X287423Y334755D01*
X288123Y334038D01*
X288882Y333385D01*
X289694Y332799D01*
X290553Y332285D01*
X291454Y331847D01*
X292389Y331488D01*
X293351Y331211D01*
X294334Y331018D01*
X295329Y330910D01*
X296331Y330888D01*
X297330Y330952D01*
X298320Y331101D01*
X299294Y331336D01*
X300244Y331653D01*
X301163Y332051D01*
X302045Y332526D01*
X302882Y333075D01*
X303669Y333695D01*
X304400Y334379D01*
X305069Y335124D01*
X305672Y335924D01*
X306203Y336773D01*
X306660Y337664D01*
X307038Y338591D01*
X307336Y339548D01*
X307550Y340526D01*
X307679Y341519D01*
X307722Y342520D01*
X307679Y343520D01*
X307550Y344513D01*
X307336Y345492D01*
X307038Y346448D01*
X306660Y347375D01*
X306203Y348266D01*
X305672Y349115D01*
X305069Y349915D01*
X304400Y350660D01*
X303669Y351345D01*
X302882Y351964D01*
X302045Y352513D01*
X301163Y352989D01*
X300244Y353386D01*
X299294Y353703D01*
X298321Y353938D01*
X297330Y354088D01*
X296331Y354152D01*
X295330Y354130D01*
X294334Y354021D01*
X293352Y353828D01*
X292389Y353551D01*
X291454Y353192D01*
X290554Y352754D01*
X289694Y352240D01*
X288882Y351655D01*
X288123Y351001D01*
X287423Y350285D01*
X286787Y349511D01*
X286221Y348685D01*
X246850Y296984D02*
X247417Y296159D01*
X248053Y295385D01*
X248753Y294668D01*
X249512Y294015D01*
X250324Y293429D01*
X251183Y292915D01*
X252084Y292477D01*
X253019Y292119D01*
X253981Y291841D01*
X254964Y291648D01*
X255960Y291540D01*
X256961Y291518D01*
X257960Y291582D01*
X258950Y291731D01*
X259924Y291966D01*
X260874Y292283D01*
X261793Y292681D01*
X262674Y293156D01*
X263512Y293705D01*
X264299Y294325D01*
X265030Y295009D01*
X265699Y295754D01*
X266301Y296554D01*
X266833Y297403D01*
X267290Y298294D01*
X267668Y299221D01*
X267966Y300178D01*
X268179Y301156D01*
X268308Y302149D01*
X268352Y303150D01*
X268308Y304150D01*
X268179Y305143D01*
X267966Y306121D01*
X267668Y307078D01*
X267290Y308005D01*
X266833Y308896D01*
X266301Y309745D01*
X265699Y310545D01*
X265030Y311290D01*
X264299Y311975D01*
X263512Y312594D01*
X262674Y313143D01*
X261793Y313618D01*
X260874Y314016D01*
X259924Y314333D01*
X258950Y314568D01*
X257960Y314718D01*
X256961Y314782D01*
X255960Y314759D01*
X254964Y314651D01*
X253981Y314458D01*
X253019Y314181D01*
X252084Y313822D01*
X251184Y313384D01*
X250324Y312870D01*
X249512Y312284D01*
X248753Y311631D01*
X248053Y310915D01*
X247417Y310141D01*
X246850Y309315D01*
X207480Y296984D02*
X208047Y296159D01*
X208683Y295385D01*
X209383Y294668D01*
X210141Y294015D01*
X210954Y293429D01*
X211813Y292915D01*
X212714Y292477D01*
X213649Y292119D01*
X214611Y291841D01*
X215594Y291648D01*
X216589Y291540D01*
X217591Y291518D01*
X218590Y291582D01*
X219580Y291731D01*
X220554Y291966D01*
X221504Y292283D01*
X222423Y292681D01*
X223304Y293156D01*
X224142Y293705D01*
X224929Y294325D01*
X225659Y295009D01*
X226329Y295754D01*
X226931Y296554D01*
X227463Y297403D01*
X227920Y298294D01*
X228298Y299221D01*
X228595Y300178D01*
X228809Y301156D01*
X228938Y302149D01*
X228981Y303150D01*
X228938Y304150D01*
X228809Y305143D01*
X228595Y306121D01*
X228298Y307078D01*
X227920Y308005D01*
X227463Y308896D01*
X226932Y309745D01*
X226329Y310545D01*
X225660Y311290D01*
X224929Y311975D01*
X224142Y312594D01*
X223304Y313143D01*
X222423Y313618D01*
X221504Y314016D01*
X220554Y314333D01*
X219580Y314568D01*
X218590Y314718D01*
X217591Y314782D01*
X216589Y314759D01*
X215594Y314651D01*
X214611Y314458D01*
X213649Y314181D01*
X212714Y313822D01*
X211813Y313384D01*
X210954Y312870D01*
X210141Y312284D01*
X209383Y311631D01*
X208683Y310915D01*
X208047Y310141D01*
X207480Y309315D01*
X207480Y336354D02*
X208047Y335529D01*
X208683Y334755D01*
X209383Y334038D01*
X210141Y333385D01*
X210954Y332799D01*
X211813Y332285D01*
X212714Y331847D01*
X213649Y331488D01*
X214611Y331211D01*
X215594Y331018D01*
X216589Y330910D01*
X217591Y330888D01*
X218590Y330952D01*
X219580Y331101D01*
X220554Y331336D01*
X221504Y331653D01*
X222423Y332051D01*
X223304Y332526D01*
X224142Y333075D01*
X224929Y333695D01*
X225659Y334379D01*
X226329Y335124D01*
X226931Y335924D01*
X227463Y336773D01*
X227920Y337664D01*
X228298Y338591D01*
X228595Y339548D01*
X228809Y340526D01*
X228938Y341519D01*
X228981Y342520D01*
X228938Y343520D01*
X228809Y344513D01*
X228595Y345492D01*
X228298Y346448D01*
X227920Y347375D01*
X227463Y348266D01*
X226932Y349115D01*
X226329Y349915D01*
X225660Y350660D01*
X224929Y351345D01*
X224142Y351964D01*
X223304Y352513D01*
X222423Y352989D01*
X221504Y353386D01*
X220554Y353703D01*
X219580Y353938D01*
X218590Y354088D01*
X217591Y354152D01*
X216589Y354130D01*
X215594Y354021D01*
X214611Y353828D01*
X213649Y353551D01*
X212714Y353192D01*
X211813Y352754D01*
X210954Y352240D01*
X210141Y351655D01*
X209383Y351001D01*
X208683Y350285D01*
X208047Y349511D01*
X207480Y348685D01*
X246850Y336354D02*
X247417Y335529D01*
X248053Y334755D01*
X248753Y334038D01*
X249512Y333385D01*
X250324Y332799D01*
X251183Y332285D01*
X252084Y331847D01*
X253019Y331488D01*
X253981Y331211D01*
X254964Y331018D01*
X255960Y330910D01*
X256961Y330888D01*
X257960Y330952D01*
X258950Y331101D01*
X259924Y331336D01*
X260874Y331653D01*
X261793Y332051D01*
X262674Y332526D01*
X263512Y333075D01*
X264299Y333695D01*
X265030Y334379D01*
X265699Y335124D01*
X266301Y335924D01*
X266833Y336773D01*
X267290Y337664D01*
X267668Y338591D01*
X267966Y339548D01*
X268179Y340526D01*
X268308Y341519D01*
X268352Y342520D01*
X268308Y343520D01*
X268179Y344513D01*
X267966Y345492D01*
X267668Y346448D01*
X267290Y347375D01*
X266833Y348266D01*
X266301Y349115D01*
X265699Y349915D01*
X265030Y350660D01*
X264299Y351345D01*
X263512Y351964D01*
X262674Y352513D01*
X261793Y352989D01*
X260874Y353386D01*
X259924Y353703D01*
X258950Y353938D01*
X257960Y354088D01*
X256961Y354152D01*
X255960Y354130D01*
X254964Y354021D01*
X253981Y353828D01*
X253019Y353551D01*
X252084Y353192D01*
X251184Y352754D01*
X250324Y352240D01*
X249512Y351655D01*
X248753Y351001D01*
X248053Y350285D01*
X247417Y349511D01*
X246850Y348685D01*
X437417Y354940D02*
X477417D01*
X437417D02*
Y364783D01*
X477417D01*
Y354940D02*
Y364783D01*
X466831Y224193D02*
Y261949D01*
X441831Y224193D02*
Y261949D01*
Y224193D02*
X466831D01*
X441831Y261949D02*
X466831D01*
Y290965D02*
Y328721D01*
X441831Y290965D02*
Y328721D01*
Y290965D02*
X466831D01*
X441831Y328721D02*
X466831D01*
X459842Y352953D02*
X475590D01*
Y343111D02*
Y352953D01*
X459842Y343111D02*
Y352953D01*
Y343111D02*
X475590D01*
X475394Y292126D02*
Y307874D01*
X485236D01*
X475394Y292126D02*
X485236D01*
Y307874D01*
X487795Y288780D02*
Y345866D01*
X507480D01*
X487795Y288780D02*
X507480D01*
Y345866D01*
X475394Y311811D02*
Y327559D01*
X485236D01*
X475394Y311811D02*
X485236D01*
Y327559D01*
X487795Y214764D02*
Y271850D01*
X507480D01*
X487795Y214764D02*
X507480D01*
Y271850D01*
X475394Y245276D02*
Y261024D01*
X485236D01*
X475394Y245276D02*
X485236D01*
Y261024D01*
X475394Y225197D02*
Y240945D01*
X485236D01*
X475394Y225197D02*
X485236D01*
Y240945D01*
X401673Y363986D02*
X426673D01*
X401673Y287982D02*
X426673D01*
X401673D02*
Y363986D01*
X426673Y287982D02*
Y363986D01*
X359724Y287421D02*
X385709D01*
X359724Y364941D02*
X385709D01*
Y287421D02*
Y364941D01*
X359724Y287421D02*
Y364941D01*
X426280Y198218D02*
Y274222D01*
X401280Y198218D02*
Y274222D01*
Y198218D02*
X426280D01*
X401280Y274222D02*
X426280D01*
X359724Y197461D02*
Y274980D01*
X385709Y197461D02*
Y274980D01*
X359724D02*
X385709D01*
X359724Y197461D02*
X385709D01*
X416536Y276575D02*
X432284D01*
X416536D02*
Y286417D01*
X432284Y276575D02*
Y286417D01*
X416536D02*
X432284D01*
X416929Y365945D02*
X432677D01*
X416929D02*
Y375787D01*
X432677Y365945D02*
Y375787D01*
X416929D02*
X432677D01*
X325591Y218244D02*
Y230575D01*
X286220Y218244D02*
Y230575D01*
X246850Y218244D02*
Y230575D01*
X324819Y257614D02*
Y269945D01*
X286220Y257614D02*
Y269945D01*
X246850Y257614D02*
Y269945D01*
X325591Y296984D02*
Y309315D01*
X286220Y296984D02*
Y309315D01*
X207480Y257614D02*
Y269945D01*
X325591Y336354D02*
Y348685D01*
X207480Y218244D02*
Y230575D01*
X286220Y336354D02*
Y348685D01*
X246850Y296984D02*
Y309315D01*
X207480Y296984D02*
Y309315D01*
Y336354D02*
Y348685D01*
X246850Y336354D02*
Y348685D01*
M02*
