G04*
G04 #@! TF.GenerationSoftware,Altium Limited,Altium Designer,22.8.2 (66)*
G04*
G04 Layer_Physical_Order=2*
G04 Layer_Color=16711680*
%FSLAX25Y25*%
%MOIN*%
G70*
G04*
G04 #@! TF.SameCoordinates,5B850A69-A84A-478A-A9FA-D5DC90572E9C*
G04*
G04*
G04 #@! TF.FilePolarity,Positive*
G04*
G01*
G75*
%ADD27C,0.15748*%
%ADD28C,0.05937*%
%ADD29R,0.05937X0.05937*%
%ADD30C,0.04449*%
%ADD31R,0.04449X0.04449*%
%ADD32C,0.05512*%
%ADD33C,0.04528*%
%ADD34C,0.04724*%
%ADD35R,0.04488X0.04488*%
%ADD36C,0.04488*%
%ADD37R,0.07146X0.07146*%
%ADD38C,0.07146*%
G36*
X505118Y370637D02*
X504618Y370587D01*
X504596Y370699D01*
X503927Y372314D01*
X502956Y373767D01*
X501720Y375003D01*
X500266Y375974D01*
X498651Y376643D01*
X496937Y376984D01*
X495189D01*
X493474Y376643D01*
X491860Y375974D01*
X490406Y375003D01*
X489170Y373767D01*
X488199Y372314D01*
X487530Y370699D01*
X487189Y368984D01*
Y367236D01*
X487530Y365522D01*
X488199Y363907D01*
X489170Y362453D01*
X490406Y361217D01*
X491860Y360246D01*
X493474Y359577D01*
X495189Y359236D01*
X496937D01*
X498651Y359577D01*
X500266Y360246D01*
X501720Y361217D01*
X502956Y362453D01*
X503927Y363907D01*
X504596Y365522D01*
X504618Y365633D01*
X505118Y365584D01*
Y192913D01*
X217687D01*
X217535Y193413D01*
X218255Y193895D01*
X219491Y195131D01*
X220462Y196584D01*
X221131Y198199D01*
X221472Y199913D01*
Y201661D01*
X221131Y203376D01*
X220462Y204991D01*
X219491Y206444D01*
X218255Y207680D01*
X216802Y208651D01*
X215187Y209320D01*
X213472Y209661D01*
X211724D01*
X210010Y209320D01*
X208395Y208651D01*
X206942Y207680D01*
X205705Y206444D01*
X205597Y206281D01*
X205118Y206426D01*
Y377953D01*
X505118D01*
Y370637D01*
D02*
G37*
%LPC*%
G36*
X420382Y374111D02*
Y371366D01*
X423127D01*
X422923Y372126D01*
X422494Y372870D01*
X421886Y373478D01*
X421142Y373908D01*
X420382Y374111D01*
D02*
G37*
G36*
X419382D02*
X418622Y373908D01*
X417878Y373478D01*
X417270Y372870D01*
X416840Y372126D01*
X416637Y371366D01*
X419382D01*
Y374111D01*
D02*
G37*
G36*
X423127Y370366D02*
X420382D01*
Y367621D01*
X421142Y367825D01*
X421886Y368254D01*
X422494Y368862D01*
X422923Y369606D01*
X423127Y370366D01*
D02*
G37*
G36*
X419382D02*
X416637D01*
X416840Y369606D01*
X417270Y368862D01*
X417878Y368254D01*
X418622Y367825D01*
X419382Y367621D01*
Y370366D01*
D02*
G37*
G36*
X430154Y374130D02*
X429295D01*
X428465Y373908D01*
X427720Y373478D01*
X427113Y372870D01*
X426683Y372126D01*
X426461Y371296D01*
Y370437D01*
X426683Y369606D01*
X427113Y368862D01*
X427720Y368254D01*
X428465Y367825D01*
X429295Y367602D01*
X430154D01*
X430984Y367825D01*
X431728Y368254D01*
X432336Y368862D01*
X432766Y369606D01*
X432988Y370437D01*
Y371296D01*
X432766Y372126D01*
X432336Y372870D01*
X431728Y373478D01*
X430984Y373908D01*
X430154Y374130D01*
D02*
G37*
G36*
X462939Y363830D02*
X462917D01*
Y360362D01*
X466385D01*
Y360384D01*
X466115Y361393D01*
X465592Y362298D01*
X464853Y363037D01*
X463948Y363560D01*
X462939Y363830D01*
D02*
G37*
G36*
X452939D02*
X452917D01*
Y360362D01*
X456385D01*
Y360384D01*
X456115Y361393D01*
X455592Y362298D01*
X454853Y363037D01*
X453948Y363560D01*
X452939Y363830D01*
D02*
G37*
G36*
X461917D02*
X461894D01*
X460885Y363560D01*
X459980Y363037D01*
X459241Y362298D01*
X458718Y361393D01*
X458448Y360384D01*
Y360362D01*
X461917D01*
Y363830D01*
D02*
G37*
G36*
X451917D02*
X451894D01*
X450885Y363560D01*
X449980Y363037D01*
X449241Y362298D01*
X448719Y361393D01*
X448448Y360384D01*
Y360362D01*
X451917D01*
Y363830D01*
D02*
G37*
G36*
X388774Y364425D02*
X387919D01*
X387094Y364204D01*
X386355Y363777D01*
X385751Y363173D01*
X385324Y362433D01*
X385103Y361608D01*
Y360754D01*
X385324Y359929D01*
X385751Y359189D01*
X386355Y358585D01*
X387094Y358158D01*
X387919Y357937D01*
X388774D01*
X389599Y358158D01*
X390338Y358585D01*
X390943Y359189D01*
X391370Y359929D01*
X391591Y360754D01*
Y361608D01*
X391370Y362433D01*
X390943Y363173D01*
X390338Y363777D01*
X389599Y364204D01*
X388774Y364425D01*
D02*
G37*
G36*
X357514D02*
X356660D01*
X355834Y364204D01*
X355095Y363777D01*
X354491Y363173D01*
X354064Y362433D01*
X353842Y361608D01*
Y360754D01*
X354064Y359929D01*
X354491Y359189D01*
X355095Y358585D01*
X355834Y358158D01*
X356660Y357937D01*
X357514D01*
X358339Y358158D01*
X359079Y358585D01*
X359682Y359189D01*
X360110Y359929D01*
X360331Y360754D01*
Y361608D01*
X360110Y362433D01*
X359682Y363173D01*
X359079Y363777D01*
X358339Y364204D01*
X357514Y364425D01*
D02*
G37*
G36*
X430228Y364209D02*
X429379D01*
X428558Y363989D01*
X427823Y363565D01*
X427223Y362964D01*
X426798Y362229D01*
X426579Y361409D01*
Y360560D01*
X426798Y359740D01*
X427223Y359005D01*
X427823Y358404D01*
X428558Y357980D01*
X429379Y357760D01*
X430228D01*
X431048Y357980D01*
X431783Y358404D01*
X432383Y359005D01*
X432808Y359740D01*
X433027Y360560D01*
Y361409D01*
X432808Y362229D01*
X432383Y362964D01*
X431783Y363565D01*
X431048Y363989D01*
X430228Y364209D01*
D02*
G37*
G36*
X401767D02*
X395319D01*
Y357760D01*
X401767D01*
Y364209D01*
D02*
G37*
G36*
X476385Y363830D02*
X468448D01*
Y355893D01*
X476385D01*
Y363830D01*
D02*
G37*
G36*
X466385Y359362D02*
X462917D01*
Y355893D01*
X462939D01*
X463948Y356164D01*
X464853Y356686D01*
X465592Y357425D01*
X466115Y358330D01*
X466385Y359339D01*
Y359362D01*
D02*
G37*
G36*
X461917D02*
X458448D01*
Y359339D01*
X458718Y358330D01*
X459241Y357425D01*
X459980Y356686D01*
X460885Y356164D01*
X461894Y355893D01*
X461917D01*
Y359362D01*
D02*
G37*
G36*
X456385D02*
X452917D01*
Y355893D01*
X452939D01*
X453948Y356164D01*
X454853Y356686D01*
X455592Y357425D01*
X456115Y358330D01*
X456385Y359339D01*
Y359362D01*
D02*
G37*
G36*
X451917D02*
X448448D01*
Y359339D01*
X448719Y358330D01*
X449241Y357425D01*
X449980Y356686D01*
X450885Y356164D01*
X451894Y355893D01*
X451917D01*
Y359362D01*
D02*
G37*
G36*
X442939Y363830D02*
X441894D01*
X440885Y363560D01*
X439980Y363037D01*
X439241Y362298D01*
X438719Y361393D01*
X438448Y360384D01*
Y359339D01*
X438719Y358330D01*
X439241Y357425D01*
X439980Y356686D01*
X440885Y356164D01*
X441894Y355893D01*
X442939D01*
X443948Y356164D01*
X444853Y356686D01*
X445592Y357425D01*
X446115Y358330D01*
X446385Y359339D01*
Y360384D01*
X446115Y361393D01*
X445592Y362298D01*
X444853Y363037D01*
X443948Y363560D01*
X442939Y363830D01*
D02*
G37*
G36*
X430303Y354189D02*
Y351484D01*
X433007D01*
X432808Y352229D01*
X432383Y352964D01*
X431783Y353565D01*
X431048Y353989D01*
X430303Y354189D01*
D02*
G37*
G36*
X429303D02*
X428558Y353989D01*
X427823Y353565D01*
X427223Y352964D01*
X426798Y352229D01*
X426599Y351484D01*
X429303D01*
Y354189D01*
D02*
G37*
G36*
X399043D02*
Y351484D01*
X401747D01*
X401548Y352229D01*
X401123Y352964D01*
X400523Y353565D01*
X399788Y353989D01*
X399043Y354189D01*
D02*
G37*
G36*
X398043D02*
X397298Y353989D01*
X396563Y353565D01*
X395963Y352964D01*
X395538Y352229D01*
X395339Y351484D01*
X398043D01*
Y354189D01*
D02*
G37*
G36*
X463295Y351277D02*
Y348532D01*
X466040D01*
X465836Y349292D01*
X465407Y350036D01*
X464799Y350643D01*
X464055Y351073D01*
X463295Y351277D01*
D02*
G37*
G36*
X462295D02*
X461535Y351073D01*
X460791Y350643D01*
X460183Y350036D01*
X459754Y349292D01*
X459550Y348532D01*
X462295D01*
Y351277D01*
D02*
G37*
G36*
X388774Y354425D02*
X387919D01*
X387094Y354204D01*
X386355Y353777D01*
X385751Y353173D01*
X385324Y352433D01*
X385103Y351608D01*
Y350754D01*
X385324Y349929D01*
X385751Y349189D01*
X386355Y348585D01*
X387094Y348158D01*
X387919Y347937D01*
X388774D01*
X389599Y348158D01*
X390338Y348585D01*
X390943Y349189D01*
X391370Y349929D01*
X391591Y350754D01*
Y351608D01*
X391370Y352433D01*
X390943Y353173D01*
X390338Y353777D01*
X389599Y354204D01*
X388774Y354425D01*
D02*
G37*
G36*
X357514D02*
X356660D01*
X355834Y354204D01*
X355095Y353777D01*
X354491Y353173D01*
X354064Y352433D01*
X353842Y351608D01*
Y350754D01*
X354064Y349929D01*
X354491Y349189D01*
X355095Y348585D01*
X355834Y348158D01*
X356660Y347937D01*
X357514D01*
X358339Y348158D01*
X359079Y348585D01*
X359682Y349189D01*
X360110Y349929D01*
X360331Y350754D01*
Y351608D01*
X360110Y352433D01*
X359682Y353173D01*
X359079Y353777D01*
X358339Y354204D01*
X357514Y354425D01*
D02*
G37*
G36*
X433007Y350484D02*
X430303D01*
Y347780D01*
X431048Y347980D01*
X431783Y348404D01*
X432383Y349005D01*
X432808Y349740D01*
X433007Y350484D01*
D02*
G37*
G36*
X429303D02*
X426599D01*
X426798Y349740D01*
X427223Y349005D01*
X427823Y348404D01*
X428558Y347980D01*
X429303Y347780D01*
Y350484D01*
D02*
G37*
G36*
X401747D02*
X399043D01*
Y347780D01*
X399788Y347980D01*
X400523Y348404D01*
X401123Y349005D01*
X401548Y349740D01*
X401747Y350484D01*
D02*
G37*
G36*
X398043D02*
X395339D01*
X395538Y349740D01*
X395963Y349005D01*
X396563Y348404D01*
X397298Y347980D01*
X398043Y347780D01*
Y350484D01*
D02*
G37*
G36*
X466040Y347532D02*
X463295D01*
Y344787D01*
X464055Y344990D01*
X464799Y345420D01*
X465407Y346028D01*
X465836Y346772D01*
X466040Y347532D01*
D02*
G37*
G36*
X462295D02*
X459550D01*
X459754Y346772D01*
X460183Y346028D01*
X460791Y345420D01*
X461535Y344990D01*
X462295Y344787D01*
Y347532D01*
D02*
G37*
G36*
X473067Y351296D02*
X472208D01*
X471378Y351073D01*
X470634Y350643D01*
X470026Y350036D01*
X469596Y349292D01*
X469374Y348462D01*
Y347602D01*
X469596Y346772D01*
X470026Y346028D01*
X470634Y345420D01*
X471378Y344990D01*
X472208Y344768D01*
X473067D01*
X473897Y344990D01*
X474642Y345420D01*
X475249Y346028D01*
X475679Y346772D01*
X475901Y347602D01*
Y348462D01*
X475679Y349292D01*
X475249Y350036D01*
X474642Y350643D01*
X473897Y351073D01*
X473067Y351296D01*
D02*
G37*
G36*
X335006Y347092D02*
X330933D01*
Y343020D01*
X335006D01*
Y347092D01*
D02*
G37*
G36*
X329933D02*
X325860D01*
Y343020D01*
X329933D01*
Y347092D01*
D02*
G37*
G36*
X295636D02*
X291563D01*
Y343020D01*
X295636D01*
Y347092D01*
D02*
G37*
G36*
X290563D02*
X286490D01*
Y343020D01*
X290563D01*
Y347092D01*
D02*
G37*
G36*
X256266D02*
X252193D01*
Y343020D01*
X256266D01*
Y347092D01*
D02*
G37*
G36*
X251193D02*
X247120D01*
Y343020D01*
X251193D01*
Y347092D01*
D02*
G37*
G36*
X216896D02*
X212823D01*
Y343020D01*
X216896D01*
Y347092D01*
D02*
G37*
G36*
X211823D02*
X207750D01*
Y343020D01*
X211823D01*
Y347092D01*
D02*
G37*
G36*
X341035D02*
X339831D01*
X338668Y346781D01*
X337625Y346179D01*
X336774Y345327D01*
X336172Y344285D01*
X335860Y343122D01*
Y341918D01*
X336172Y340755D01*
X336774Y339712D01*
X337625Y338860D01*
X338668Y338258D01*
X339831Y337947D01*
X341035D01*
X342198Y338258D01*
X343241Y338860D01*
X344092Y339712D01*
X344694Y340755D01*
X345006Y341918D01*
Y343122D01*
X344694Y344285D01*
X344092Y345327D01*
X343241Y346179D01*
X342198Y346781D01*
X341035Y347092D01*
D02*
G37*
G36*
X335006Y342020D02*
X330933D01*
Y337947D01*
X335006D01*
Y342020D01*
D02*
G37*
G36*
X329933D02*
X325860D01*
Y337947D01*
X329933D01*
Y342020D01*
D02*
G37*
G36*
X301665Y347092D02*
X300461D01*
X299298Y346781D01*
X298255Y346179D01*
X297404Y345327D01*
X296802Y344285D01*
X296490Y343122D01*
Y341918D01*
X296802Y340755D01*
X297404Y339712D01*
X298255Y338860D01*
X299298Y338258D01*
X300461Y337947D01*
X301665D01*
X302828Y338258D01*
X303871Y338860D01*
X304722Y339712D01*
X305324Y340755D01*
X305636Y341918D01*
Y343122D01*
X305324Y344285D01*
X304722Y345327D01*
X303871Y346179D01*
X302828Y346781D01*
X301665Y347092D01*
D02*
G37*
G36*
X295636Y342020D02*
X291563D01*
Y337947D01*
X295636D01*
Y342020D01*
D02*
G37*
G36*
X290563D02*
X286490D01*
Y337947D01*
X290563D01*
Y342020D01*
D02*
G37*
G36*
X262295Y347092D02*
X261091D01*
X259928Y346781D01*
X258885Y346179D01*
X258034Y345327D01*
X257432Y344285D01*
X257120Y343122D01*
Y341918D01*
X257432Y340755D01*
X258034Y339712D01*
X258885Y338860D01*
X259928Y338258D01*
X261091Y337947D01*
X262295D01*
X263458Y338258D01*
X264501Y338860D01*
X265352Y339712D01*
X265954Y340755D01*
X266266Y341918D01*
Y343122D01*
X265954Y344285D01*
X265352Y345327D01*
X264501Y346179D01*
X263458Y346781D01*
X262295Y347092D01*
D02*
G37*
G36*
X256266Y342020D02*
X252193D01*
Y337947D01*
X256266D01*
Y342020D01*
D02*
G37*
G36*
X251193D02*
X247120D01*
Y337947D01*
X251193D01*
Y342020D01*
D02*
G37*
G36*
X222925Y347092D02*
X221721D01*
X220558Y346781D01*
X219515Y346179D01*
X218664Y345327D01*
X218062Y344285D01*
X217750Y343122D01*
Y341918D01*
X218062Y340755D01*
X218664Y339712D01*
X219515Y338860D01*
X220558Y338258D01*
X221721Y337947D01*
X222925D01*
X224088Y338258D01*
X225131Y338860D01*
X225982Y339712D01*
X226584Y340755D01*
X226896Y341918D01*
Y343122D01*
X226584Y344285D01*
X225982Y345327D01*
X225131Y346179D01*
X224088Y346781D01*
X222925Y347092D01*
D02*
G37*
G36*
X216896Y342020D02*
X212823D01*
Y337947D01*
X216896D01*
Y342020D01*
D02*
G37*
G36*
X211823D02*
X207750D01*
Y337947D01*
X211823D01*
Y342020D01*
D02*
G37*
G36*
X388774Y344425D02*
X387919D01*
X387094Y344204D01*
X386355Y343777D01*
X385751Y343173D01*
X385324Y342433D01*
X385103Y341608D01*
Y340754D01*
X385324Y339929D01*
X385751Y339189D01*
X386355Y338585D01*
X387094Y338158D01*
X387919Y337937D01*
X388774D01*
X389599Y338158D01*
X390338Y338585D01*
X390943Y339189D01*
X391370Y339929D01*
X391591Y340754D01*
Y341608D01*
X391370Y342433D01*
X390943Y343173D01*
X390338Y343777D01*
X389599Y344204D01*
X388774Y344425D01*
D02*
G37*
G36*
X357514D02*
X356660D01*
X355834Y344204D01*
X355095Y343777D01*
X354491Y343173D01*
X354064Y342433D01*
X353842Y341608D01*
Y340754D01*
X354064Y339929D01*
X354491Y339189D01*
X355095Y338585D01*
X355834Y338158D01*
X356660Y337937D01*
X357514D01*
X358339Y338158D01*
X359079Y338585D01*
X359682Y339189D01*
X360110Y339929D01*
X360331Y340754D01*
Y341608D01*
X360110Y342433D01*
X359682Y343173D01*
X359079Y343777D01*
X358339Y344204D01*
X357514Y344425D01*
D02*
G37*
G36*
X430228Y344209D02*
X429379D01*
X428558Y343989D01*
X427823Y343565D01*
X427223Y342964D01*
X426798Y342229D01*
X426579Y341409D01*
Y340560D01*
X426798Y339740D01*
X427223Y339005D01*
X427823Y338404D01*
X428558Y337980D01*
X429379Y337760D01*
X430228D01*
X431048Y337980D01*
X431783Y338404D01*
X432383Y339005D01*
X432808Y339740D01*
X433027Y340560D01*
Y341409D01*
X432808Y342229D01*
X432383Y342964D01*
X431783Y343565D01*
X431048Y343989D01*
X430228Y344209D01*
D02*
G37*
G36*
X398968D02*
X398118D01*
X397298Y343989D01*
X396563Y343565D01*
X395963Y342964D01*
X395538Y342229D01*
X395319Y341409D01*
Y340560D01*
X395538Y339740D01*
X395963Y339005D01*
X396563Y338404D01*
X397298Y337980D01*
X398118Y337760D01*
X398968D01*
X399788Y337980D01*
X400523Y338404D01*
X401123Y339005D01*
X401548Y339740D01*
X401767Y340560D01*
Y341409D01*
X401548Y342229D01*
X401123Y342964D01*
X400523Y343565D01*
X399788Y343989D01*
X398968Y344209D01*
D02*
G37*
G36*
X498138Y335433D02*
Y332587D01*
X500984D01*
X500771Y333384D01*
X500328Y334151D01*
X499702Y334777D01*
X498935Y335220D01*
X498138Y335433D01*
D02*
G37*
G36*
X497138D02*
X496340Y335220D01*
X495573Y334777D01*
X494947Y334151D01*
X494504Y333384D01*
X494291Y332587D01*
X497138D01*
Y335433D01*
D02*
G37*
G36*
X500984Y331587D02*
X498138D01*
Y328740D01*
X498935Y328954D01*
X499702Y329396D01*
X500328Y330022D01*
X500771Y330789D01*
X500984Y331587D01*
D02*
G37*
G36*
X497138D02*
X494291D01*
X494504Y330789D01*
X494947Y330022D01*
X495573Y329396D01*
X496340Y328954D01*
X497138Y328740D01*
Y331587D01*
D02*
G37*
G36*
X388774Y334425D02*
X387919D01*
X387094Y334204D01*
X386355Y333777D01*
X385751Y333173D01*
X385324Y332433D01*
X385103Y331608D01*
Y330754D01*
X385324Y329929D01*
X385751Y329189D01*
X386355Y328585D01*
X387094Y328158D01*
X387919Y327937D01*
X388774D01*
X389599Y328158D01*
X390338Y328585D01*
X390943Y329189D01*
X391370Y329929D01*
X391591Y330754D01*
Y331608D01*
X391370Y332433D01*
X390943Y333173D01*
X390338Y333777D01*
X389599Y334204D01*
X388774Y334425D01*
D02*
G37*
G36*
X357514D02*
X356660D01*
X355834Y334204D01*
X355095Y333777D01*
X354491Y333173D01*
X354064Y332433D01*
X353842Y331608D01*
Y330754D01*
X354064Y329929D01*
X354491Y329189D01*
X355095Y328585D01*
X355834Y328158D01*
X356660Y327937D01*
X357514D01*
X358339Y328158D01*
X359079Y328585D01*
X359682Y329189D01*
X360110Y329929D01*
X360331Y330754D01*
Y331608D01*
X360110Y332433D01*
X359682Y333173D01*
X359079Y333777D01*
X358339Y334204D01*
X357514Y334425D01*
D02*
G37*
G36*
X430228Y334209D02*
X429379D01*
X428558Y333989D01*
X427823Y333565D01*
X427223Y332964D01*
X426798Y332229D01*
X426579Y331409D01*
Y330560D01*
X426798Y329740D01*
X427223Y329005D01*
X427823Y328404D01*
X428558Y327980D01*
X429379Y327760D01*
X430228D01*
X431048Y327980D01*
X431783Y328404D01*
X432383Y329005D01*
X432808Y329740D01*
X433027Y330560D01*
Y331409D01*
X432808Y332229D01*
X432383Y332964D01*
X431783Y333565D01*
X431048Y333989D01*
X430228Y334209D01*
D02*
G37*
G36*
X398968D02*
X398118D01*
X397298Y333989D01*
X396563Y333565D01*
X395963Y332964D01*
X395538Y332229D01*
X395319Y331409D01*
Y330560D01*
X395538Y329740D01*
X395963Y329005D01*
X396563Y328404D01*
X397298Y327980D01*
X398118Y327760D01*
X398968D01*
X399788Y327980D01*
X400523Y328404D01*
X401123Y329005D01*
X401548Y329740D01*
X401767Y330560D01*
Y331409D01*
X401548Y332229D01*
X401123Y332964D01*
X400523Y333565D01*
X399788Y333989D01*
X398968Y334209D01*
D02*
G37*
G36*
X441925Y328067D02*
X439201D01*
Y325343D01*
X441925D01*
Y328067D01*
D02*
G37*
G36*
X438201D02*
X435477D01*
Y325343D01*
X438201D01*
Y328067D01*
D02*
G37*
G36*
X470385D02*
X469536D01*
X468716Y327847D01*
X467981Y327423D01*
X467381Y326822D01*
X466956Y326087D01*
X466736Y325267D01*
Y324418D01*
X466956Y323598D01*
X467381Y322863D01*
X467981Y322262D01*
X468716Y321838D01*
X469536Y321618D01*
X470385D01*
X471205Y321838D01*
X471941Y322262D01*
X472541Y322863D01*
X472965Y323598D01*
X473185Y324418D01*
Y325267D01*
X472965Y326087D01*
X472541Y326822D01*
X471941Y327423D01*
X471205Y327847D01*
X470385Y328067D01*
D02*
G37*
G36*
X441925Y324343D02*
X439201D01*
Y321618D01*
X441925D01*
Y324343D01*
D02*
G37*
G36*
X438201D02*
X435477D01*
Y321618D01*
X438201D01*
Y324343D01*
D02*
G37*
G36*
X480745Y327870D02*
X479885D01*
X479055Y327648D01*
X478311Y327218D01*
X477703Y326610D01*
X477274Y325866D01*
X477051Y325036D01*
Y324177D01*
X477274Y323346D01*
X477703Y322602D01*
X478311Y321994D01*
X479055Y321565D01*
X479885Y321342D01*
X480745D01*
X481575Y321565D01*
X482319Y321994D01*
X482927Y322602D01*
X483356Y323346D01*
X483579Y324177D01*
Y325036D01*
X483356Y325866D01*
X482927Y326610D01*
X482319Y327218D01*
X481575Y327648D01*
X480745Y327870D01*
D02*
G37*
G36*
X388774Y324425D02*
X387919D01*
X387094Y324204D01*
X386355Y323777D01*
X385751Y323173D01*
X385324Y322433D01*
X385103Y321608D01*
Y320754D01*
X385324Y319929D01*
X385751Y319189D01*
X386355Y318585D01*
X387094Y318158D01*
X387919Y317937D01*
X388774D01*
X389599Y318158D01*
X390338Y318585D01*
X390943Y319189D01*
X391370Y319929D01*
X391591Y320754D01*
Y321608D01*
X391370Y322433D01*
X390943Y323173D01*
X390338Y323777D01*
X389599Y324204D01*
X388774Y324425D01*
D02*
G37*
G36*
X357514D02*
X356660D01*
X355834Y324204D01*
X355095Y323777D01*
X354491Y323173D01*
X354064Y322433D01*
X353842Y321608D01*
Y320754D01*
X354064Y319929D01*
X354491Y319189D01*
X355095Y318585D01*
X355834Y318158D01*
X356660Y317937D01*
X357514D01*
X358339Y318158D01*
X359079Y318585D01*
X359682Y319189D01*
X360110Y319929D01*
X360331Y320754D01*
Y321608D01*
X360110Y322433D01*
X359682Y323173D01*
X359079Y323777D01*
X358339Y324204D01*
X357514Y324425D01*
D02*
G37*
G36*
X430228Y324209D02*
X429379D01*
X428558Y323989D01*
X427823Y323565D01*
X427223Y322964D01*
X426798Y322229D01*
X426579Y321409D01*
Y320560D01*
X426798Y319740D01*
X427223Y319005D01*
X427823Y318404D01*
X428558Y317980D01*
X429379Y317760D01*
X430228D01*
X431048Y317980D01*
X431783Y318404D01*
X432383Y319005D01*
X432808Y319740D01*
X433027Y320560D01*
Y321409D01*
X432808Y322229D01*
X432383Y322964D01*
X431783Y323565D01*
X431048Y323989D01*
X430228Y324209D01*
D02*
G37*
G36*
X398968D02*
X398118D01*
X397298Y323989D01*
X396563Y323565D01*
X395963Y322964D01*
X395538Y322229D01*
X395319Y321409D01*
Y320560D01*
X395538Y319740D01*
X395963Y319005D01*
X396563Y318404D01*
X397298Y317980D01*
X398118Y317760D01*
X398968D01*
X399788Y317980D01*
X400523Y318404D01*
X401123Y319005D01*
X401548Y319740D01*
X401767Y320560D01*
Y321409D01*
X401548Y322229D01*
X401123Y322964D01*
X400523Y323565D01*
X399788Y323989D01*
X398968Y324209D01*
D02*
G37*
G36*
X480815Y318008D02*
Y315264D01*
X483560D01*
X483356Y316023D01*
X482927Y316768D01*
X482319Y317375D01*
X481575Y317805D01*
X480815Y318008D01*
D02*
G37*
G36*
X479815D02*
X479055Y317805D01*
X478311Y317375D01*
X477703Y316768D01*
X477274Y316023D01*
X477070Y315264D01*
X479815D01*
Y318008D01*
D02*
G37*
G36*
X470385Y318067D02*
X469536D01*
X468716Y317847D01*
X467981Y317423D01*
X467381Y316822D01*
X466956Y316087D01*
X466736Y315267D01*
Y314418D01*
X466956Y313598D01*
X467381Y312863D01*
X467981Y312262D01*
X468716Y311838D01*
X469536Y311618D01*
X470385D01*
X471205Y311838D01*
X471941Y312262D01*
X472541Y312863D01*
X472965Y313598D01*
X473185Y314418D01*
Y315267D01*
X472965Y316087D01*
X472541Y316822D01*
X471941Y317423D01*
X471205Y317847D01*
X470385Y318067D01*
D02*
G37*
G36*
X439125D02*
X438276D01*
X437456Y317847D01*
X436721Y317423D01*
X436121Y316822D01*
X435696Y316087D01*
X435477Y315267D01*
Y314418D01*
X435696Y313598D01*
X436121Y312863D01*
X436721Y312262D01*
X437456Y311838D01*
X438276Y311618D01*
X439125D01*
X439946Y311838D01*
X440681Y312262D01*
X441281Y312863D01*
X441706Y313598D01*
X441925Y314418D01*
Y315267D01*
X441706Y316087D01*
X441281Y316822D01*
X440681Y317423D01*
X439946Y317847D01*
X439125Y318067D01*
D02*
G37*
G36*
X483560Y314264D02*
X480815D01*
Y311519D01*
X481575Y311722D01*
X482319Y312152D01*
X482927Y312760D01*
X483356Y313504D01*
X483560Y314264D01*
D02*
G37*
G36*
X479815D02*
X477070D01*
X477274Y313504D01*
X477703Y312760D01*
X478311Y312152D01*
X479055Y311722D01*
X479815Y311519D01*
Y314264D01*
D02*
G37*
G36*
X388774Y314425D02*
X387919D01*
X387094Y314204D01*
X386355Y313777D01*
X385751Y313173D01*
X385324Y312433D01*
X385103Y311608D01*
Y310754D01*
X385324Y309929D01*
X385751Y309189D01*
X386355Y308585D01*
X387094Y308158D01*
X387919Y307937D01*
X388774D01*
X389599Y308158D01*
X390338Y308585D01*
X390943Y309189D01*
X391370Y309929D01*
X391591Y310754D01*
Y311608D01*
X391370Y312433D01*
X390943Y313173D01*
X390338Y313777D01*
X389599Y314204D01*
X388774Y314425D01*
D02*
G37*
G36*
X357514D02*
X356660D01*
X355834Y314204D01*
X355095Y313777D01*
X354491Y313173D01*
X354064Y312433D01*
X353842Y311608D01*
Y310754D01*
X354064Y309929D01*
X354491Y309189D01*
X355095Y308585D01*
X355834Y308158D01*
X356660Y307937D01*
X357514D01*
X358339Y308158D01*
X359079Y308585D01*
X359682Y309189D01*
X360110Y309929D01*
X360331Y310754D01*
Y311608D01*
X360110Y312433D01*
X359682Y313173D01*
X359079Y313777D01*
X358339Y314204D01*
X357514Y314425D01*
D02*
G37*
G36*
X430228Y314209D02*
X429379D01*
X428558Y313989D01*
X427823Y313565D01*
X427223Y312964D01*
X426798Y312229D01*
X426579Y311409D01*
Y310560D01*
X426798Y309740D01*
X427223Y309005D01*
X427823Y308404D01*
X428558Y307980D01*
X429379Y307760D01*
X430228D01*
X431048Y307980D01*
X431783Y308404D01*
X432383Y309005D01*
X432808Y309740D01*
X433027Y310560D01*
Y311409D01*
X432808Y312229D01*
X432383Y312964D01*
X431783Y313565D01*
X431048Y313989D01*
X430228Y314209D01*
D02*
G37*
G36*
X398968D02*
X398118D01*
X397298Y313989D01*
X396563Y313565D01*
X395963Y312964D01*
X395538Y312229D01*
X395319Y311409D01*
Y310560D01*
X395538Y309740D01*
X395963Y309005D01*
X396563Y308404D01*
X397298Y307980D01*
X398118Y307760D01*
X398968D01*
X399788Y307980D01*
X400523Y308404D01*
X401123Y309005D01*
X401548Y309740D01*
X401767Y310560D01*
Y311409D01*
X401548Y312229D01*
X401123Y312964D01*
X400523Y313565D01*
X399788Y313989D01*
X398968Y314209D01*
D02*
G37*
G36*
X335006Y307722D02*
X330933D01*
Y303650D01*
X335006D01*
Y307722D01*
D02*
G37*
G36*
X329933D02*
X325860D01*
Y303650D01*
X329933D01*
Y307722D01*
D02*
G37*
G36*
X295636D02*
X291563D01*
Y303650D01*
X295636D01*
Y307722D01*
D02*
G37*
G36*
X290563D02*
X286490D01*
Y303650D01*
X290563D01*
Y307722D01*
D02*
G37*
G36*
X256266D02*
X252193D01*
Y303650D01*
X256266D01*
Y307722D01*
D02*
G37*
G36*
X251193D02*
X247120D01*
Y303650D01*
X251193D01*
Y307722D01*
D02*
G37*
G36*
X216896D02*
X212823D01*
Y303650D01*
X216896D01*
Y307722D01*
D02*
G37*
G36*
X211823D02*
X207750D01*
Y303650D01*
X211823D01*
Y307722D01*
D02*
G37*
G36*
X480745Y308185D02*
X479885D01*
X479055Y307963D01*
X478311Y307533D01*
X477703Y306925D01*
X477274Y306181D01*
X477051Y305351D01*
Y304492D01*
X477274Y303662D01*
X477703Y302917D01*
X478311Y302310D01*
X479055Y301880D01*
X479885Y301658D01*
X480745D01*
X481575Y301880D01*
X482319Y302310D01*
X482927Y302917D01*
X483356Y303662D01*
X483579Y304492D01*
Y305351D01*
X483356Y306181D01*
X482927Y306925D01*
X482319Y307533D01*
X481575Y307963D01*
X480745Y308185D01*
D02*
G37*
G36*
X470385Y308067D02*
X469536D01*
X468716Y307847D01*
X467981Y307423D01*
X467381Y306822D01*
X466956Y306087D01*
X466736Y305267D01*
Y304418D01*
X466956Y303598D01*
X467381Y302863D01*
X467981Y302262D01*
X468716Y301838D01*
X469536Y301618D01*
X470385D01*
X471205Y301838D01*
X471941Y302262D01*
X472541Y302863D01*
X472965Y303598D01*
X473185Y304418D01*
Y305267D01*
X472965Y306087D01*
X472541Y306822D01*
X471941Y307423D01*
X471205Y307847D01*
X470385Y308067D01*
D02*
G37*
G36*
X439125D02*
X438276D01*
X437456Y307847D01*
X436721Y307423D01*
X436121Y306822D01*
X435696Y306087D01*
X435477Y305267D01*
Y304418D01*
X435696Y303598D01*
X436121Y302863D01*
X436721Y302262D01*
X437456Y301838D01*
X438276Y301618D01*
X439125D01*
X439946Y301838D01*
X440681Y302262D01*
X441281Y302863D01*
X441706Y303598D01*
X441925Y304418D01*
Y305267D01*
X441706Y306087D01*
X441281Y306822D01*
X440681Y307423D01*
X439946Y307847D01*
X439125Y308067D01*
D02*
G37*
G36*
X498080Y305921D02*
X497195D01*
X496340Y305692D01*
X495573Y305249D01*
X494947Y304623D01*
X494504Y303857D01*
X494275Y303002D01*
Y302116D01*
X494504Y301261D01*
X494947Y300495D01*
X495573Y299869D01*
X496340Y299426D01*
X497195Y299197D01*
X498080D01*
X498935Y299426D01*
X499702Y299869D01*
X500328Y300495D01*
X500771Y301261D01*
X501000Y302116D01*
Y303002D01*
X500771Y303857D01*
X500328Y304623D01*
X499702Y305249D01*
X498935Y305692D01*
X498080Y305921D01*
D02*
G37*
G36*
X341035Y307722D02*
X339831D01*
X338668Y307411D01*
X337625Y306809D01*
X336774Y305957D01*
X336172Y304915D01*
X335860Y303752D01*
Y302548D01*
X336172Y301384D01*
X336774Y300342D01*
X337625Y299490D01*
X338668Y298888D01*
X339831Y298577D01*
X341035D01*
X342198Y298888D01*
X343241Y299490D01*
X344092Y300342D01*
X344694Y301384D01*
X345006Y302548D01*
Y303752D01*
X344694Y304915D01*
X344092Y305957D01*
X343241Y306809D01*
X342198Y307411D01*
X341035Y307722D01*
D02*
G37*
G36*
X335006Y302650D02*
X330933D01*
Y298577D01*
X335006D01*
Y302650D01*
D02*
G37*
G36*
X329933D02*
X325860D01*
Y298577D01*
X329933D01*
Y302650D01*
D02*
G37*
G36*
X301665Y307722D02*
X300461D01*
X299298Y307411D01*
X298255Y306809D01*
X297404Y305957D01*
X296802Y304915D01*
X296490Y303752D01*
Y302548D01*
X296802Y301384D01*
X297404Y300342D01*
X298255Y299490D01*
X299298Y298888D01*
X300461Y298577D01*
X301665D01*
X302828Y298888D01*
X303871Y299490D01*
X304722Y300342D01*
X305324Y301384D01*
X305636Y302548D01*
Y303752D01*
X305324Y304915D01*
X304722Y305957D01*
X303871Y306809D01*
X302828Y307411D01*
X301665Y307722D01*
D02*
G37*
G36*
X295636Y302650D02*
X291563D01*
Y298577D01*
X295636D01*
Y302650D01*
D02*
G37*
G36*
X290563D02*
X286490D01*
Y298577D01*
X290563D01*
Y302650D01*
D02*
G37*
G36*
X262295Y307722D02*
X261091D01*
X259928Y307411D01*
X258885Y306809D01*
X258034Y305957D01*
X257432Y304915D01*
X257120Y303752D01*
Y302548D01*
X257432Y301384D01*
X258034Y300342D01*
X258885Y299490D01*
X259928Y298888D01*
X261091Y298577D01*
X262295D01*
X263458Y298888D01*
X264501Y299490D01*
X265352Y300342D01*
X265954Y301384D01*
X266266Y302548D01*
Y303752D01*
X265954Y304915D01*
X265352Y305957D01*
X264501Y306809D01*
X263458Y307411D01*
X262295Y307722D01*
D02*
G37*
G36*
X256266Y302650D02*
X252193D01*
Y298577D01*
X256266D01*
Y302650D01*
D02*
G37*
G36*
X251193D02*
X247120D01*
Y298577D01*
X251193D01*
Y302650D01*
D02*
G37*
G36*
X222925Y307722D02*
X221721D01*
X220558Y307411D01*
X219515Y306809D01*
X218664Y305957D01*
X218062Y304915D01*
X217750Y303752D01*
Y302548D01*
X218062Y301384D01*
X218664Y300342D01*
X219515Y299490D01*
X220558Y298888D01*
X221721Y298577D01*
X222925D01*
X224088Y298888D01*
X225131Y299490D01*
X225982Y300342D01*
X226584Y301384D01*
X226896Y302548D01*
Y303752D01*
X226584Y304915D01*
X225982Y305957D01*
X225131Y306809D01*
X224088Y307411D01*
X222925Y307722D01*
D02*
G37*
G36*
X216896Y302650D02*
X212823D01*
Y298577D01*
X216896D01*
Y302650D01*
D02*
G37*
G36*
X211823D02*
X207750D01*
Y298577D01*
X211823D01*
Y302650D01*
D02*
G37*
G36*
X388774Y304425D02*
X387919D01*
X387094Y304204D01*
X386355Y303777D01*
X385751Y303173D01*
X385324Y302433D01*
X385103Y301608D01*
Y300754D01*
X385324Y299929D01*
X385751Y299189D01*
X386355Y298585D01*
X387094Y298158D01*
X387919Y297937D01*
X388774D01*
X389599Y298158D01*
X390338Y298585D01*
X390943Y299189D01*
X391370Y299929D01*
X391591Y300754D01*
Y301608D01*
X391370Y302433D01*
X390943Y303173D01*
X390338Y303777D01*
X389599Y304204D01*
X388774Y304425D01*
D02*
G37*
G36*
X357514D02*
X356660D01*
X355834Y304204D01*
X355095Y303777D01*
X354491Y303173D01*
X354064Y302433D01*
X353842Y301608D01*
Y300754D01*
X354064Y299929D01*
X354491Y299189D01*
X355095Y298585D01*
X355834Y298158D01*
X356660Y297937D01*
X357514D01*
X358339Y298158D01*
X359079Y298585D01*
X359682Y299189D01*
X360110Y299929D01*
X360331Y300754D01*
Y301608D01*
X360110Y302433D01*
X359682Y303173D01*
X359079Y303777D01*
X358339Y304204D01*
X357514Y304425D01*
D02*
G37*
G36*
X430228Y304209D02*
X429379D01*
X428558Y303989D01*
X427823Y303565D01*
X427223Y302964D01*
X426798Y302229D01*
X426579Y301409D01*
Y300560D01*
X426798Y299740D01*
X427223Y299005D01*
X427823Y298404D01*
X428558Y297980D01*
X429379Y297760D01*
X430228D01*
X431048Y297980D01*
X431783Y298404D01*
X432383Y299005D01*
X432808Y299740D01*
X433027Y300560D01*
Y301409D01*
X432808Y302229D01*
X432383Y302964D01*
X431783Y303565D01*
X431048Y303989D01*
X430228Y304209D01*
D02*
G37*
G36*
X398968D02*
X398118D01*
X397298Y303989D01*
X396563Y303565D01*
X395963Y302964D01*
X395538Y302229D01*
X395319Y301409D01*
Y300560D01*
X395538Y299740D01*
X395963Y299005D01*
X396563Y298404D01*
X397298Y297980D01*
X398118Y297760D01*
X398968D01*
X399788Y297980D01*
X400523Y298404D01*
X401123Y299005D01*
X401548Y299740D01*
X401767Y300560D01*
Y301409D01*
X401548Y302229D01*
X401123Y302964D01*
X400523Y303565D01*
X399788Y303989D01*
X398968Y304209D01*
D02*
G37*
G36*
X480815Y298324D02*
Y295579D01*
X483560D01*
X483356Y296339D01*
X482927Y297083D01*
X482319Y297691D01*
X481575Y298120D01*
X480815Y298324D01*
D02*
G37*
G36*
X479815D02*
X479055Y298120D01*
X478311Y297691D01*
X477703Y297083D01*
X477274Y296339D01*
X477070Y295579D01*
X479815D01*
Y298324D01*
D02*
G37*
G36*
X483560Y294579D02*
X480815D01*
Y291834D01*
X481575Y292037D01*
X482319Y292467D01*
X482927Y293075D01*
X483356Y293819D01*
X483560Y294579D01*
D02*
G37*
G36*
X479815D02*
X477070D01*
X477274Y293819D01*
X477703Y293075D01*
X478311Y292467D01*
X479055Y292037D01*
X479815Y291834D01*
Y294579D01*
D02*
G37*
G36*
X470385Y298067D02*
X469536D01*
X468716Y297847D01*
X467981Y297423D01*
X467381Y296822D01*
X466956Y296087D01*
X466736Y295267D01*
Y294418D01*
X466956Y293598D01*
X467381Y292863D01*
X467981Y292262D01*
X468716Y291838D01*
X469536Y291618D01*
X470385D01*
X471205Y291838D01*
X471941Y292262D01*
X472541Y292863D01*
X472965Y293598D01*
X473185Y294418D01*
Y295267D01*
X472965Y296087D01*
X472541Y296822D01*
X471941Y297423D01*
X471205Y297847D01*
X470385Y298067D01*
D02*
G37*
G36*
X439125D02*
X438276D01*
X437456Y297847D01*
X436721Y297423D01*
X436121Y296822D01*
X435696Y296087D01*
X435477Y295267D01*
Y294418D01*
X435696Y293598D01*
X436121Y292863D01*
X436721Y292262D01*
X437456Y291838D01*
X438276Y291618D01*
X439125D01*
X439946Y291838D01*
X440681Y292262D01*
X441281Y292863D01*
X441706Y293598D01*
X441925Y294418D01*
Y295267D01*
X441706Y296087D01*
X441281Y296822D01*
X440681Y297423D01*
X439946Y297847D01*
X439125Y298067D01*
D02*
G37*
G36*
X399043Y294189D02*
Y291484D01*
X401747D01*
X401548Y292229D01*
X401123Y292964D01*
X400523Y293565D01*
X399788Y293989D01*
X399043Y294189D01*
D02*
G37*
G36*
X398043D02*
X397298Y293989D01*
X396563Y293565D01*
X395963Y292964D01*
X395538Y292229D01*
X395339Y291484D01*
X398043D01*
Y294189D01*
D02*
G37*
G36*
X391591Y294425D02*
X385103D01*
Y287937D01*
X391591D01*
Y294425D01*
D02*
G37*
G36*
X357514D02*
X356660D01*
X355834Y294204D01*
X355095Y293777D01*
X354491Y293173D01*
X354064Y292433D01*
X353842Y291608D01*
Y290754D01*
X354064Y289929D01*
X354491Y289189D01*
X355095Y288585D01*
X355834Y288158D01*
X356660Y287937D01*
X357514D01*
X358339Y288158D01*
X359079Y288585D01*
X359682Y289189D01*
X360110Y289929D01*
X360331Y290754D01*
Y291608D01*
X360110Y292433D01*
X359682Y293173D01*
X359079Y293777D01*
X358339Y294204D01*
X357514Y294425D01*
D02*
G37*
G36*
X401747Y290484D02*
X399043D01*
Y287780D01*
X399788Y287980D01*
X400523Y288404D01*
X401123Y289005D01*
X401548Y289740D01*
X401747Y290484D01*
D02*
G37*
G36*
X398043D02*
X395339D01*
X395538Y289740D01*
X395963Y289005D01*
X396563Y288404D01*
X397298Y287980D01*
X398043Y287780D01*
Y290484D01*
D02*
G37*
G36*
X430228Y294209D02*
X429379D01*
X428558Y293989D01*
X427823Y293565D01*
X427223Y292964D01*
X426798Y292229D01*
X426579Y291409D01*
Y290560D01*
X426798Y289740D01*
X427223Y289005D01*
X427823Y288404D01*
X428558Y287980D01*
X429379Y287760D01*
X430228D01*
X431048Y287980D01*
X431783Y288404D01*
X432383Y289005D01*
X432808Y289740D01*
X433027Y290560D01*
Y291409D01*
X432808Y292229D01*
X432383Y292964D01*
X431783Y293565D01*
X431048Y293989D01*
X430228Y294209D01*
D02*
G37*
G36*
X419988Y284741D02*
Y281996D01*
X422733D01*
X422530Y282756D01*
X422100Y283500D01*
X421492Y284108D01*
X420748Y284538D01*
X419988Y284741D01*
D02*
G37*
G36*
X418988D02*
X418228Y284538D01*
X417484Y284108D01*
X416877Y283500D01*
X416447Y282756D01*
X416243Y281996D01*
X418988D01*
Y284741D01*
D02*
G37*
G36*
X479589Y288008D02*
X478600D01*
X477645Y287752D01*
X476789Y287258D01*
X476089Y286558D01*
X475595Y285702D01*
X475339Y284747D01*
Y283757D01*
X475595Y282802D01*
X476089Y281946D01*
X476789Y281246D01*
X477645Y280752D01*
X478600Y280496D01*
X479589D01*
X480545Y280752D01*
X481401Y281246D01*
X482100Y281946D01*
X482595Y282802D01*
X482851Y283757D01*
Y284747D01*
X482595Y285702D01*
X482100Y286558D01*
X481401Y287258D01*
X480545Y287752D01*
X479589Y288008D01*
D02*
G37*
G36*
X439589D02*
X438600D01*
X437645Y287752D01*
X436789Y287258D01*
X436089Y286558D01*
X435595Y285702D01*
X435339Y284747D01*
Y283757D01*
X435595Y282802D01*
X436089Y281946D01*
X436789Y281246D01*
X437645Y280752D01*
X438600Y280496D01*
X439589D01*
X440545Y280752D01*
X441401Y281246D01*
X442100Y281946D01*
X442595Y282802D01*
X442851Y283757D01*
Y284747D01*
X442595Y285702D01*
X442100Y286558D01*
X441401Y287258D01*
X440545Y287752D01*
X439589Y288008D01*
D02*
G37*
G36*
X422733Y280996D02*
X419988D01*
Y278251D01*
X420748Y278455D01*
X421492Y278885D01*
X422100Y279492D01*
X422530Y280236D01*
X422733Y280996D01*
D02*
G37*
G36*
X418988D02*
X416243D01*
X416447Y280236D01*
X416877Y279492D01*
X417484Y278885D01*
X418228Y278455D01*
X418988Y278251D01*
Y280996D01*
D02*
G37*
G36*
X429761Y284760D02*
X428901D01*
X428071Y284538D01*
X427327Y284108D01*
X426719Y283500D01*
X426289Y282756D01*
X426067Y281926D01*
Y281066D01*
X426289Y280236D01*
X426719Y279492D01*
X427327Y278885D01*
X428071Y278455D01*
X428901Y278232D01*
X429761D01*
X430591Y278455D01*
X431335Y278885D01*
X431943Y279492D01*
X432372Y280236D01*
X432595Y281066D01*
Y281926D01*
X432372Y282756D01*
X431943Y283500D01*
X431335Y284108D01*
X430591Y284538D01*
X429761Y284760D01*
D02*
G37*
G36*
X479589Y278165D02*
X478600D01*
X477645Y277909D01*
X476789Y277415D01*
X476089Y276716D01*
X475595Y275859D01*
X475339Y274904D01*
Y273915D01*
X475595Y272960D01*
X476089Y272103D01*
X476789Y271404D01*
X477645Y270910D01*
X478600Y270654D01*
X479589D01*
X480545Y270910D01*
X481401Y271404D01*
X482100Y272103D01*
X482595Y272960D01*
X482851Y273915D01*
Y274904D01*
X482595Y275859D01*
X482100Y276716D01*
X481401Y277415D01*
X480545Y277909D01*
X479589Y278165D01*
D02*
G37*
G36*
X439589D02*
X438600D01*
X437645Y277909D01*
X436789Y277415D01*
X436089Y276716D01*
X435595Y275859D01*
X435339Y274904D01*
Y273915D01*
X435595Y272960D01*
X436089Y272103D01*
X436789Y271404D01*
X437645Y270910D01*
X438600Y270654D01*
X439589D01*
X440545Y270910D01*
X441401Y271404D01*
X442100Y272103D01*
X442595Y272960D01*
X442851Y273915D01*
Y274904D01*
X442595Y275859D01*
X442100Y276716D01*
X441401Y277415D01*
X440545Y277909D01*
X439589Y278165D01*
D02*
G37*
G36*
X429834Y274445D02*
X428985D01*
X428165Y274225D01*
X427430Y273801D01*
X426829Y273200D01*
X426405Y272465D01*
X426185Y271645D01*
Y270796D01*
X426405Y269976D01*
X426829Y269241D01*
X427430Y268640D01*
X428165Y268216D01*
X428985Y267996D01*
X429834D01*
X430654Y268216D01*
X431389Y268640D01*
X431990Y269241D01*
X432414Y269976D01*
X432634Y270796D01*
Y271645D01*
X432414Y272465D01*
X431990Y273200D01*
X431389Y273801D01*
X430654Y274225D01*
X429834Y274445D01*
D02*
G37*
G36*
X401374D02*
X394925D01*
Y267996D01*
X401374D01*
Y274445D01*
D02*
G37*
G36*
X388774Y274465D02*
X387919D01*
X387094Y274243D01*
X386355Y273816D01*
X385751Y273212D01*
X385324Y272473D01*
X385103Y271648D01*
Y270793D01*
X385324Y269968D01*
X385751Y269229D01*
X386355Y268624D01*
X387094Y268197D01*
X387919Y267976D01*
X388774D01*
X389599Y268197D01*
X390338Y268624D01*
X390943Y269229D01*
X391370Y269968D01*
X391591Y270793D01*
Y271648D01*
X391370Y272473D01*
X390943Y273212D01*
X390338Y273816D01*
X389599Y274243D01*
X388774Y274465D01*
D02*
G37*
G36*
X357514D02*
X356660D01*
X355834Y274243D01*
X355095Y273816D01*
X354491Y273212D01*
X354064Y272473D01*
X353842Y271648D01*
Y270793D01*
X354064Y269968D01*
X354491Y269229D01*
X355095Y268624D01*
X355834Y268197D01*
X356660Y267976D01*
X357514D01*
X358339Y268197D01*
X359079Y268624D01*
X359682Y269229D01*
X360110Y269968D01*
X360331Y270793D01*
Y271648D01*
X360110Y272473D01*
X359682Y273212D01*
X359079Y273816D01*
X358339Y274243D01*
X357514Y274465D01*
D02*
G37*
G36*
X334234Y268352D02*
X330161D01*
Y264280D01*
X334234D01*
Y268352D01*
D02*
G37*
G36*
X329161D02*
X325089D01*
Y264280D01*
X329161D01*
Y268352D01*
D02*
G37*
G36*
X295636D02*
X291563D01*
Y264280D01*
X295636D01*
Y268352D01*
D02*
G37*
G36*
X290563D02*
X286490D01*
Y264280D01*
X290563D01*
Y268352D01*
D02*
G37*
G36*
X256266D02*
X252193D01*
Y264280D01*
X256266D01*
Y268352D01*
D02*
G37*
G36*
X251193D02*
X247120D01*
Y264280D01*
X251193D01*
Y268352D01*
D02*
G37*
G36*
X216896D02*
X212823D01*
Y264280D01*
X216896D01*
Y268352D01*
D02*
G37*
G36*
X211823D02*
X207750D01*
Y264280D01*
X211823D01*
Y268352D01*
D02*
G37*
G36*
X429910Y264425D02*
Y261720D01*
X432614D01*
X432414Y262465D01*
X431990Y263200D01*
X431389Y263801D01*
X430654Y264225D01*
X429910Y264425D01*
D02*
G37*
G36*
X428910D02*
X428165Y264225D01*
X427430Y263801D01*
X426829Y263200D01*
X426405Y262465D01*
X426205Y261720D01*
X428910D01*
Y264425D01*
D02*
G37*
G36*
X398650D02*
Y261720D01*
X401354D01*
X401154Y262465D01*
X400730Y263200D01*
X400129Y263801D01*
X399394Y264225D01*
X398650Y264425D01*
D02*
G37*
G36*
X397650D02*
X396905Y264225D01*
X396170Y263801D01*
X395569Y263200D01*
X395145Y262465D01*
X394945Y261720D01*
X397650D01*
Y264425D01*
D02*
G37*
G36*
X340263Y268352D02*
X339059D01*
X337896Y268041D01*
X336854Y267439D01*
X336002Y266587D01*
X335400Y265545D01*
X335089Y264382D01*
Y263178D01*
X335400Y262015D01*
X336002Y260972D01*
X336854Y260120D01*
X337896Y259518D01*
X339059Y259207D01*
X340263D01*
X341426Y259518D01*
X342469Y260120D01*
X343321Y260972D01*
X343923Y262015D01*
X344234Y263178D01*
Y264382D01*
X343923Y265545D01*
X343321Y266587D01*
X342469Y267439D01*
X341426Y268041D01*
X340263Y268352D01*
D02*
G37*
G36*
X334234Y263280D02*
X330161D01*
Y259207D01*
X334234D01*
Y263280D01*
D02*
G37*
G36*
X329161D02*
X325089D01*
Y259207D01*
X329161D01*
Y263280D01*
D02*
G37*
G36*
X301665Y268352D02*
X300461D01*
X299298Y268041D01*
X298255Y267439D01*
X297404Y266587D01*
X296802Y265545D01*
X296490Y264382D01*
Y263178D01*
X296802Y262015D01*
X297404Y260972D01*
X298255Y260120D01*
X299298Y259518D01*
X300461Y259207D01*
X301665D01*
X302828Y259518D01*
X303871Y260120D01*
X304722Y260972D01*
X305324Y262015D01*
X305636Y263178D01*
Y264382D01*
X305324Y265545D01*
X304722Y266587D01*
X303871Y267439D01*
X302828Y268041D01*
X301665Y268352D01*
D02*
G37*
G36*
X295636Y263280D02*
X291563D01*
Y259207D01*
X295636D01*
Y263280D01*
D02*
G37*
G36*
X290563D02*
X286490D01*
Y259207D01*
X290563D01*
Y263280D01*
D02*
G37*
G36*
X262295Y268352D02*
X261091D01*
X259928Y268041D01*
X258885Y267439D01*
X258034Y266587D01*
X257432Y265545D01*
X257120Y264382D01*
Y263178D01*
X257432Y262015D01*
X258034Y260972D01*
X258885Y260120D01*
X259928Y259518D01*
X261091Y259207D01*
X262295D01*
X263458Y259518D01*
X264501Y260120D01*
X265352Y260972D01*
X265954Y262015D01*
X266266Y263178D01*
Y264382D01*
X265954Y265545D01*
X265352Y266587D01*
X264501Y267439D01*
X263458Y268041D01*
X262295Y268352D01*
D02*
G37*
G36*
X256266Y263280D02*
X252193D01*
Y259207D01*
X256266D01*
Y263280D01*
D02*
G37*
G36*
X251193D02*
X247120D01*
Y259207D01*
X251193D01*
Y263280D01*
D02*
G37*
G36*
X222925Y268352D02*
X221721D01*
X220558Y268041D01*
X219515Y267439D01*
X218664Y266587D01*
X218062Y265545D01*
X217750Y264382D01*
Y263178D01*
X218062Y262015D01*
X218664Y260972D01*
X219515Y260120D01*
X220558Y259518D01*
X221721Y259207D01*
X222925D01*
X224088Y259518D01*
X225131Y260120D01*
X225982Y260972D01*
X226584Y262015D01*
X226896Y263178D01*
Y264382D01*
X226584Y265545D01*
X225982Y266587D01*
X225131Y267439D01*
X224088Y268041D01*
X222925Y268352D01*
D02*
G37*
G36*
X216896Y263280D02*
X212823D01*
Y259207D01*
X216896D01*
Y263280D01*
D02*
G37*
G36*
X211823D02*
X207750D01*
Y259207D01*
X211823D01*
Y263280D01*
D02*
G37*
G36*
X498138Y261418D02*
Y258571D01*
X500985D01*
X500771Y259369D01*
X500328Y260135D01*
X499702Y260761D01*
X498936Y261204D01*
X498138Y261418D01*
D02*
G37*
G36*
X441925Y261295D02*
X439201D01*
Y258571D01*
X441925D01*
Y261295D01*
D02*
G37*
G36*
X438201D02*
X435477D01*
Y258571D01*
X438201D01*
Y261295D01*
D02*
G37*
G36*
X497138Y261418D02*
X496340Y261204D01*
X495573Y260761D01*
X494947Y260135D01*
X494505Y259369D01*
X494291Y258571D01*
X497138D01*
Y261418D01*
D02*
G37*
G36*
X432614Y260720D02*
X429910D01*
Y258016D01*
X430654Y258216D01*
X431389Y258640D01*
X431990Y259241D01*
X432414Y259976D01*
X432614Y260720D01*
D02*
G37*
G36*
X428910D02*
X426205D01*
X426405Y259976D01*
X426829Y259241D01*
X427430Y258640D01*
X428165Y258216D01*
X428910Y258016D01*
Y260720D01*
D02*
G37*
G36*
X401354D02*
X398650D01*
Y258016D01*
X399394Y258216D01*
X400129Y258640D01*
X400730Y259241D01*
X401154Y259976D01*
X401354Y260720D01*
D02*
G37*
G36*
X397650D02*
X394945D01*
X395145Y259976D01*
X395569Y259241D01*
X396170Y258640D01*
X396905Y258216D01*
X397650Y258016D01*
Y260720D01*
D02*
G37*
G36*
X388774Y264464D02*
X387919D01*
X387094Y264243D01*
X386355Y263816D01*
X385751Y263212D01*
X385324Y262473D01*
X385103Y261648D01*
Y260793D01*
X385324Y259968D01*
X385751Y259228D01*
X386355Y258625D01*
X387094Y258197D01*
X387919Y257976D01*
X388774D01*
X389599Y258197D01*
X390338Y258625D01*
X390943Y259228D01*
X391370Y259968D01*
X391591Y260793D01*
Y261648D01*
X391370Y262473D01*
X390943Y263212D01*
X390338Y263816D01*
X389599Y264243D01*
X388774Y264464D01*
D02*
G37*
G36*
X357514D02*
X356660D01*
X355834Y264243D01*
X355095Y263816D01*
X354491Y263212D01*
X354064Y262473D01*
X353842Y261648D01*
Y260793D01*
X354064Y259968D01*
X354491Y259228D01*
X355095Y258625D01*
X355834Y258197D01*
X356660Y257976D01*
X357514D01*
X358339Y258197D01*
X359079Y258625D01*
X359682Y259228D01*
X360110Y259968D01*
X360331Y260793D01*
Y261648D01*
X360110Y262473D01*
X359682Y263212D01*
X359079Y263816D01*
X358339Y264243D01*
X357514Y264464D01*
D02*
G37*
G36*
X470385Y261295D02*
X469536D01*
X468716Y261076D01*
X467981Y260651D01*
X467381Y260051D01*
X466956Y259316D01*
X466736Y258495D01*
Y257646D01*
X466956Y256826D01*
X467381Y256091D01*
X467981Y255491D01*
X468716Y255066D01*
X469536Y254847D01*
X470385D01*
X471205Y255066D01*
X471941Y255491D01*
X472541Y256091D01*
X472965Y256826D01*
X473185Y257646D01*
Y258495D01*
X472965Y259316D01*
X472541Y260051D01*
X471941Y260651D01*
X471205Y261076D01*
X470385Y261295D01*
D02*
G37*
G36*
X441925Y257571D02*
X439201D01*
Y254847D01*
X441925D01*
Y257571D01*
D02*
G37*
G36*
X438201D02*
X435477D01*
Y254847D01*
X438201D01*
Y257571D01*
D02*
G37*
G36*
X480745Y261335D02*
X479885D01*
X479055Y261112D01*
X478311Y260683D01*
X477703Y260075D01*
X477274Y259331D01*
X477051Y258501D01*
Y257641D01*
X477274Y256811D01*
X477703Y256067D01*
X478311Y255459D01*
X479055Y255030D01*
X479885Y254807D01*
X480745D01*
X481575Y255030D01*
X482319Y255459D01*
X482927Y256067D01*
X483356Y256811D01*
X483579Y257641D01*
Y258501D01*
X483356Y259331D01*
X482927Y260075D01*
X482319Y260683D01*
X481575Y261112D01*
X480745Y261335D01*
D02*
G37*
G36*
X500985Y257571D02*
X498138D01*
Y254724D01*
X498936Y254938D01*
X499702Y255381D01*
X500328Y256007D01*
X500771Y256773D01*
X500985Y257571D01*
D02*
G37*
G36*
X497138D02*
X494291D01*
X494505Y256773D01*
X494947Y256007D01*
X495573Y255381D01*
X496340Y254938D01*
X497138Y254724D01*
Y257571D01*
D02*
G37*
G36*
X480815Y251473D02*
Y248728D01*
X483560D01*
X483356Y249488D01*
X482927Y250232D01*
X482319Y250840D01*
X481575Y251270D01*
X480815Y251473D01*
D02*
G37*
G36*
X479815D02*
X479055Y251270D01*
X478311Y250840D01*
X477703Y250232D01*
X477274Y249488D01*
X477070Y248728D01*
X479815D01*
Y251473D01*
D02*
G37*
G36*
X429834Y254445D02*
X428985D01*
X428165Y254225D01*
X427430Y253801D01*
X426829Y253200D01*
X426405Y252465D01*
X426185Y251645D01*
Y250796D01*
X426405Y249976D01*
X426829Y249241D01*
X427430Y248640D01*
X428165Y248216D01*
X428985Y247996D01*
X429834D01*
X430654Y248216D01*
X431389Y248640D01*
X431990Y249241D01*
X432414Y249976D01*
X432634Y250796D01*
Y251645D01*
X432414Y252465D01*
X431990Y253200D01*
X431389Y253801D01*
X430654Y254225D01*
X429834Y254445D01*
D02*
G37*
G36*
X398574D02*
X397725D01*
X396905Y254225D01*
X396170Y253801D01*
X395569Y253200D01*
X395145Y252465D01*
X394925Y251645D01*
Y250796D01*
X395145Y249976D01*
X395569Y249241D01*
X396170Y248640D01*
X396905Y248216D01*
X397725Y247996D01*
X398574D01*
X399394Y248216D01*
X400129Y248640D01*
X400730Y249241D01*
X401154Y249976D01*
X401374Y250796D01*
Y251645D01*
X401154Y252465D01*
X400730Y253200D01*
X400129Y253801D01*
X399394Y254225D01*
X398574Y254445D01*
D02*
G37*
G36*
X388774Y254465D02*
X387919D01*
X387094Y254243D01*
X386355Y253816D01*
X385751Y253212D01*
X385324Y252473D01*
X385103Y251647D01*
Y250793D01*
X385324Y249968D01*
X385751Y249229D01*
X386355Y248624D01*
X387094Y248197D01*
X387919Y247976D01*
X388774D01*
X389599Y248197D01*
X390338Y248624D01*
X390943Y249229D01*
X391370Y249968D01*
X391591Y250793D01*
Y251647D01*
X391370Y252473D01*
X390943Y253212D01*
X390338Y253816D01*
X389599Y254243D01*
X388774Y254465D01*
D02*
G37*
G36*
X357514D02*
X356660D01*
X355834Y254243D01*
X355095Y253816D01*
X354491Y253212D01*
X354064Y252473D01*
X353842Y251647D01*
Y250793D01*
X354064Y249968D01*
X354491Y249229D01*
X355095Y248624D01*
X355834Y248197D01*
X356660Y247976D01*
X357514D01*
X358339Y248197D01*
X359079Y248624D01*
X359682Y249229D01*
X360110Y249968D01*
X360331Y250793D01*
Y251647D01*
X360110Y252473D01*
X359682Y253212D01*
X359079Y253816D01*
X358339Y254243D01*
X357514Y254465D01*
D02*
G37*
G36*
X483560Y247728D02*
X480815D01*
Y244984D01*
X481575Y245187D01*
X482319Y245617D01*
X482927Y246224D01*
X483356Y246969D01*
X483560Y247728D01*
D02*
G37*
G36*
X479815D02*
X477070D01*
X477274Y246969D01*
X477703Y246224D01*
X478311Y245617D01*
X479055Y245187D01*
X479815Y244984D01*
Y247728D01*
D02*
G37*
G36*
X470385Y251295D02*
X469536D01*
X468716Y251076D01*
X467981Y250651D01*
X467381Y250051D01*
X466956Y249316D01*
X466736Y248496D01*
Y247646D01*
X466956Y246826D01*
X467381Y246091D01*
X467981Y245491D01*
X468716Y245066D01*
X469536Y244847D01*
X470385D01*
X471205Y245066D01*
X471941Y245491D01*
X472541Y246091D01*
X472965Y246826D01*
X473185Y247646D01*
Y248496D01*
X472965Y249316D01*
X472541Y250051D01*
X471941Y250651D01*
X471205Y251076D01*
X470385Y251295D01*
D02*
G37*
G36*
X439125D02*
X438276D01*
X437456Y251076D01*
X436721Y250651D01*
X436121Y250051D01*
X435696Y249316D01*
X435477Y248496D01*
Y247646D01*
X435696Y246826D01*
X436121Y246091D01*
X436721Y245491D01*
X437456Y245066D01*
X438276Y244847D01*
X439125D01*
X439946Y245066D01*
X440681Y245491D01*
X441281Y246091D01*
X441706Y246826D01*
X441925Y247646D01*
Y248496D01*
X441706Y249316D01*
X441281Y250051D01*
X440681Y250651D01*
X439946Y251076D01*
X439125Y251295D01*
D02*
G37*
G36*
X429834Y244445D02*
X428985D01*
X428165Y244225D01*
X427430Y243801D01*
X426829Y243200D01*
X426405Y242465D01*
X426185Y241645D01*
Y240796D01*
X426405Y239976D01*
X426829Y239241D01*
X427430Y238640D01*
X428165Y238216D01*
X428985Y237996D01*
X429834D01*
X430654Y238216D01*
X431389Y238640D01*
X431990Y239241D01*
X432414Y239976D01*
X432634Y240796D01*
Y241645D01*
X432414Y242465D01*
X431990Y243200D01*
X431389Y243801D01*
X430654Y244225D01*
X429834Y244445D01*
D02*
G37*
G36*
X398574D02*
X397725D01*
X396905Y244225D01*
X396170Y243801D01*
X395569Y243200D01*
X395145Y242465D01*
X394925Y241645D01*
Y240796D01*
X395145Y239976D01*
X395569Y239241D01*
X396170Y238640D01*
X396905Y238216D01*
X397725Y237996D01*
X398574D01*
X399394Y238216D01*
X400129Y238640D01*
X400730Y239241D01*
X401154Y239976D01*
X401374Y240796D01*
Y241645D01*
X401154Y242465D01*
X400730Y243200D01*
X400129Y243801D01*
X399394Y244225D01*
X398574Y244445D01*
D02*
G37*
G36*
X388774Y244464D02*
X387919D01*
X387094Y244243D01*
X386355Y243816D01*
X385751Y243212D01*
X385324Y242473D01*
X385103Y241648D01*
Y240793D01*
X385324Y239968D01*
X385751Y239229D01*
X386355Y238625D01*
X387094Y238197D01*
X387919Y237976D01*
X388774D01*
X389599Y238197D01*
X390338Y238625D01*
X390943Y239229D01*
X391370Y239968D01*
X391591Y240793D01*
Y241648D01*
X391370Y242473D01*
X390943Y243212D01*
X390338Y243816D01*
X389599Y244243D01*
X388774Y244464D01*
D02*
G37*
G36*
X357514D02*
X356660D01*
X355834Y244243D01*
X355095Y243816D01*
X354491Y243212D01*
X354064Y242473D01*
X353842Y241648D01*
Y240793D01*
X354064Y239968D01*
X354491Y239229D01*
X355095Y238625D01*
X355834Y238197D01*
X356660Y237976D01*
X357514D01*
X358339Y238197D01*
X359079Y238625D01*
X359682Y239229D01*
X360110Y239968D01*
X360331Y240793D01*
Y241648D01*
X360110Y242473D01*
X359682Y243212D01*
X359079Y243816D01*
X358339Y244243D01*
X357514Y244464D01*
D02*
G37*
G36*
X470385Y241295D02*
X469536D01*
X468716Y241076D01*
X467981Y240651D01*
X467381Y240051D01*
X466956Y239316D01*
X466736Y238495D01*
Y237647D01*
X466956Y236826D01*
X467381Y236091D01*
X467981Y235491D01*
X468716Y235066D01*
X469536Y234847D01*
X470385D01*
X471205Y235066D01*
X471941Y235491D01*
X472541Y236091D01*
X472965Y236826D01*
X473185Y237647D01*
Y238495D01*
X472965Y239316D01*
X472541Y240051D01*
X471941Y240651D01*
X471205Y241076D01*
X470385Y241295D01*
D02*
G37*
G36*
X439125D02*
X438276D01*
X437456Y241076D01*
X436721Y240651D01*
X436121Y240051D01*
X435696Y239316D01*
X435477Y238495D01*
Y237647D01*
X435696Y236826D01*
X436121Y236091D01*
X436721Y235491D01*
X437456Y235066D01*
X438276Y234847D01*
X439125D01*
X439946Y235066D01*
X440681Y235491D01*
X441281Y236091D01*
X441706Y236826D01*
X441925Y237647D01*
Y238495D01*
X441706Y239316D01*
X441281Y240051D01*
X440681Y240651D01*
X439946Y241076D01*
X439125Y241295D01*
D02*
G37*
G36*
X480745Y241256D02*
X479885D01*
X479055Y241034D01*
X478311Y240604D01*
X477703Y239996D01*
X477274Y239252D01*
X477051Y238422D01*
Y237562D01*
X477274Y236732D01*
X477703Y235988D01*
X478311Y235381D01*
X479055Y234951D01*
X479885Y234728D01*
X480745D01*
X481575Y234951D01*
X482319Y235381D01*
X482927Y235988D01*
X483356Y236732D01*
X483579Y237562D01*
Y238422D01*
X483356Y239252D01*
X482927Y239996D01*
X482319Y240604D01*
X481575Y241034D01*
X480745Y241256D01*
D02*
G37*
G36*
X480815Y231395D02*
Y228650D01*
X483560D01*
X483356Y229409D01*
X482927Y230154D01*
X482319Y230761D01*
X481575Y231191D01*
X480815Y231395D01*
D02*
G37*
G36*
X479815D02*
X479055Y231191D01*
X478311Y230761D01*
X477703Y230154D01*
X477274Y229409D01*
X477070Y228650D01*
X479815D01*
Y231395D01*
D02*
G37*
G36*
X429834Y234445D02*
X428985D01*
X428165Y234225D01*
X427430Y233801D01*
X426829Y233200D01*
X426405Y232465D01*
X426185Y231645D01*
Y230796D01*
X426405Y229976D01*
X426829Y229241D01*
X427430Y228640D01*
X428165Y228216D01*
X428985Y227996D01*
X429834D01*
X430654Y228216D01*
X431389Y228640D01*
X431990Y229241D01*
X432414Y229976D01*
X432634Y230796D01*
Y231645D01*
X432414Y232465D01*
X431990Y233200D01*
X431389Y233801D01*
X430654Y234225D01*
X429834Y234445D01*
D02*
G37*
G36*
X398574D02*
X397725D01*
X396905Y234225D01*
X396170Y233801D01*
X395569Y233200D01*
X395145Y232465D01*
X394925Y231645D01*
Y230796D01*
X395145Y229976D01*
X395569Y229241D01*
X396170Y228640D01*
X396905Y228216D01*
X397725Y227996D01*
X398574D01*
X399394Y228216D01*
X400129Y228640D01*
X400730Y229241D01*
X401154Y229976D01*
X401374Y230796D01*
Y231645D01*
X401154Y232465D01*
X400730Y233200D01*
X400129Y233801D01*
X399394Y234225D01*
X398574Y234445D01*
D02*
G37*
G36*
X388774Y234465D02*
X387919D01*
X387094Y234243D01*
X386355Y233816D01*
X385751Y233212D01*
X385324Y232473D01*
X385103Y231647D01*
Y230793D01*
X385324Y229968D01*
X385751Y229228D01*
X386355Y228625D01*
X387094Y228197D01*
X387919Y227976D01*
X388774D01*
X389599Y228197D01*
X390338Y228625D01*
X390943Y229228D01*
X391370Y229968D01*
X391591Y230793D01*
Y231647D01*
X391370Y232473D01*
X390943Y233212D01*
X390338Y233816D01*
X389599Y234243D01*
X388774Y234465D01*
D02*
G37*
G36*
X357514D02*
X356660D01*
X355834Y234243D01*
X355095Y233816D01*
X354491Y233212D01*
X354064Y232473D01*
X353842Y231647D01*
Y230793D01*
X354064Y229968D01*
X354491Y229228D01*
X355095Y228625D01*
X355834Y228197D01*
X356660Y227976D01*
X357514D01*
X358339Y228197D01*
X359079Y228625D01*
X359682Y229228D01*
X360110Y229968D01*
X360331Y230793D01*
Y231647D01*
X360110Y232473D01*
X359682Y233212D01*
X359079Y233816D01*
X358339Y234243D01*
X357514Y234465D01*
D02*
G37*
G36*
X498080Y231906D02*
X497195D01*
X496340Y231677D01*
X495573Y231234D01*
X494947Y230608D01*
X494505Y229841D01*
X494276Y228986D01*
Y228101D01*
X494505Y227246D01*
X494947Y226479D01*
X495573Y225853D01*
X496340Y225410D01*
X497195Y225181D01*
X498080D01*
X498936Y225410D01*
X499702Y225853D01*
X500328Y226479D01*
X500771Y227246D01*
X501000Y228101D01*
Y228986D01*
X500771Y229841D01*
X500328Y230608D01*
X499702Y231234D01*
X498936Y231677D01*
X498080Y231906D01*
D02*
G37*
G36*
X335006Y228982D02*
X330933D01*
Y224909D01*
X335006D01*
Y228982D01*
D02*
G37*
G36*
X329933D02*
X325860D01*
Y224909D01*
X329933D01*
Y228982D01*
D02*
G37*
G36*
X295636D02*
X291563D01*
Y224909D01*
X295636D01*
Y228982D01*
D02*
G37*
G36*
X290563D02*
X286490D01*
Y224909D01*
X290563D01*
Y228982D01*
D02*
G37*
G36*
X256266D02*
X252193D01*
Y224909D01*
X256266D01*
Y228982D01*
D02*
G37*
G36*
X251193D02*
X247120D01*
Y224909D01*
X251193D01*
Y228982D01*
D02*
G37*
G36*
X216896D02*
X212823D01*
Y224909D01*
X216896D01*
Y228982D01*
D02*
G37*
G36*
X211823D02*
X207750D01*
Y224909D01*
X211823D01*
Y228982D01*
D02*
G37*
G36*
X483560Y227650D02*
X480815D01*
Y224905D01*
X481575Y225108D01*
X482319Y225538D01*
X482927Y226146D01*
X483356Y226890D01*
X483560Y227650D01*
D02*
G37*
G36*
X479815D02*
X477070D01*
X477274Y226890D01*
X477703Y226146D01*
X478311Y225538D01*
X479055Y225108D01*
X479815Y224905D01*
Y227650D01*
D02*
G37*
G36*
X470385Y231295D02*
X469536D01*
X468716Y231076D01*
X467981Y230651D01*
X467381Y230051D01*
X466956Y229316D01*
X466736Y228496D01*
Y227646D01*
X466956Y226826D01*
X467381Y226091D01*
X467981Y225491D01*
X468716Y225066D01*
X469536Y224847D01*
X470385D01*
X471205Y225066D01*
X471941Y225491D01*
X472541Y226091D01*
X472965Y226826D01*
X473185Y227646D01*
Y228496D01*
X472965Y229316D01*
X472541Y230051D01*
X471941Y230651D01*
X471205Y231076D01*
X470385Y231295D01*
D02*
G37*
G36*
X439125D02*
X438276D01*
X437456Y231076D01*
X436721Y230651D01*
X436121Y230051D01*
X435696Y229316D01*
X435477Y228496D01*
Y227646D01*
X435696Y226826D01*
X436121Y226091D01*
X436721Y225491D01*
X437456Y225066D01*
X438276Y224847D01*
X439125D01*
X439946Y225066D01*
X440681Y225491D01*
X441281Y226091D01*
X441706Y226826D01*
X441925Y227646D01*
Y228496D01*
X441706Y229316D01*
X441281Y230051D01*
X440681Y230651D01*
X439946Y231076D01*
X439125Y231295D01*
D02*
G37*
G36*
X341035Y228982D02*
X339831D01*
X338668Y228671D01*
X337625Y228069D01*
X336774Y227217D01*
X336172Y226174D01*
X335860Y225011D01*
Y223807D01*
X336172Y222644D01*
X336774Y221602D01*
X337625Y220750D01*
X338668Y220148D01*
X339831Y219837D01*
X341035D01*
X342198Y220148D01*
X343241Y220750D01*
X344092Y221602D01*
X344694Y222644D01*
X345006Y223807D01*
Y225011D01*
X344694Y226174D01*
X344092Y227217D01*
X343241Y228069D01*
X342198Y228671D01*
X341035Y228982D01*
D02*
G37*
G36*
X335006Y223909D02*
X330933D01*
Y219837D01*
X335006D01*
Y223909D01*
D02*
G37*
G36*
X329933D02*
X325860D01*
Y219837D01*
X329933D01*
Y223909D01*
D02*
G37*
G36*
X301665Y228982D02*
X300461D01*
X299298Y228671D01*
X298255Y228069D01*
X297404Y227217D01*
X296802Y226174D01*
X296490Y225011D01*
Y223807D01*
X296802Y222644D01*
X297404Y221602D01*
X298255Y220750D01*
X299298Y220148D01*
X300461Y219837D01*
X301665D01*
X302828Y220148D01*
X303871Y220750D01*
X304722Y221602D01*
X305324Y222644D01*
X305636Y223807D01*
Y225011D01*
X305324Y226174D01*
X304722Y227217D01*
X303871Y228069D01*
X302828Y228671D01*
X301665Y228982D01*
D02*
G37*
G36*
X295636Y223909D02*
X291563D01*
Y219837D01*
X295636D01*
Y223909D01*
D02*
G37*
G36*
X290563D02*
X286490D01*
Y219837D01*
X290563D01*
Y223909D01*
D02*
G37*
G36*
X262295Y228982D02*
X261091D01*
X259928Y228671D01*
X258885Y228069D01*
X258034Y227217D01*
X257432Y226174D01*
X257120Y225011D01*
Y223807D01*
X257432Y222644D01*
X258034Y221602D01*
X258885Y220750D01*
X259928Y220148D01*
X261091Y219837D01*
X262295D01*
X263458Y220148D01*
X264501Y220750D01*
X265352Y221602D01*
X265954Y222644D01*
X266266Y223807D01*
Y225011D01*
X265954Y226174D01*
X265352Y227217D01*
X264501Y228069D01*
X263458Y228671D01*
X262295Y228982D01*
D02*
G37*
G36*
X256266Y223909D02*
X252193D01*
Y219837D01*
X256266D01*
Y223909D01*
D02*
G37*
G36*
X251193D02*
X247120D01*
Y219837D01*
X251193D01*
Y223909D01*
D02*
G37*
G36*
X222925Y228982D02*
X221721D01*
X220558Y228671D01*
X219515Y228069D01*
X218664Y227217D01*
X218062Y226174D01*
X217750Y225011D01*
Y223807D01*
X218062Y222644D01*
X218664Y221602D01*
X219515Y220750D01*
X220558Y220148D01*
X221721Y219837D01*
X222925D01*
X224088Y220148D01*
X225131Y220750D01*
X225982Y221602D01*
X226584Y222644D01*
X226896Y223807D01*
Y225011D01*
X226584Y226174D01*
X225982Y227217D01*
X225131Y228069D01*
X224088Y228671D01*
X222925Y228982D01*
D02*
G37*
G36*
X216896Y223909D02*
X212823D01*
Y219837D01*
X216896D01*
Y223909D01*
D02*
G37*
G36*
X211823D02*
X207750D01*
Y219837D01*
X211823D01*
Y223909D01*
D02*
G37*
G36*
X429834Y224445D02*
X428985D01*
X428165Y224225D01*
X427430Y223801D01*
X426829Y223200D01*
X426405Y222465D01*
X426185Y221645D01*
Y220796D01*
X426405Y219976D01*
X426829Y219241D01*
X427430Y218640D01*
X428165Y218216D01*
X428985Y217996D01*
X429834D01*
X430654Y218216D01*
X431389Y218640D01*
X431990Y219241D01*
X432414Y219976D01*
X432634Y220796D01*
Y221645D01*
X432414Y222465D01*
X431990Y223200D01*
X431389Y223801D01*
X430654Y224225D01*
X429834Y224445D01*
D02*
G37*
G36*
X398574D02*
X397725D01*
X396905Y224225D01*
X396170Y223801D01*
X395569Y223200D01*
X395145Y222465D01*
X394925Y221645D01*
Y220796D01*
X395145Y219976D01*
X395569Y219241D01*
X396170Y218640D01*
X396905Y218216D01*
X397725Y217996D01*
X398574D01*
X399394Y218216D01*
X400129Y218640D01*
X400730Y219241D01*
X401154Y219976D01*
X401374Y220796D01*
Y221645D01*
X401154Y222465D01*
X400730Y223200D01*
X400129Y223801D01*
X399394Y224225D01*
X398574Y224445D01*
D02*
G37*
G36*
X388774Y224465D02*
X387919D01*
X387094Y224243D01*
X386355Y223816D01*
X385751Y223212D01*
X385324Y222473D01*
X385103Y221648D01*
Y220793D01*
X385324Y219968D01*
X385751Y219229D01*
X386355Y218624D01*
X387094Y218197D01*
X387919Y217976D01*
X388774D01*
X389599Y218197D01*
X390338Y218624D01*
X390943Y219229D01*
X391370Y219968D01*
X391591Y220793D01*
Y221648D01*
X391370Y222473D01*
X390943Y223212D01*
X390338Y223816D01*
X389599Y224243D01*
X388774Y224465D01*
D02*
G37*
G36*
X357514D02*
X356660D01*
X355834Y224243D01*
X355095Y223816D01*
X354491Y223212D01*
X354064Y222473D01*
X353842Y221648D01*
Y220793D01*
X354064Y219968D01*
X354491Y219229D01*
X355095Y218624D01*
X355834Y218197D01*
X356660Y217976D01*
X357514D01*
X358339Y218197D01*
X359079Y218624D01*
X359682Y219229D01*
X360110Y219968D01*
X360331Y220793D01*
Y221648D01*
X360110Y222473D01*
X359682Y223212D01*
X359079Y223816D01*
X358339Y224243D01*
X357514Y224465D01*
D02*
G37*
G36*
X429834Y214445D02*
X428985D01*
X428165Y214225D01*
X427430Y213801D01*
X426829Y213200D01*
X426405Y212465D01*
X426185Y211645D01*
Y210796D01*
X426405Y209976D01*
X426829Y209241D01*
X427430Y208640D01*
X428165Y208216D01*
X428985Y207996D01*
X429834D01*
X430654Y208216D01*
X431389Y208640D01*
X431990Y209241D01*
X432414Y209976D01*
X432634Y210796D01*
Y211645D01*
X432414Y212465D01*
X431990Y213200D01*
X431389Y213801D01*
X430654Y214225D01*
X429834Y214445D01*
D02*
G37*
G36*
X398574D02*
X397725D01*
X396905Y214225D01*
X396170Y213801D01*
X395569Y213200D01*
X395145Y212465D01*
X394925Y211645D01*
Y210796D01*
X395145Y209976D01*
X395569Y209241D01*
X396170Y208640D01*
X396905Y208216D01*
X397725Y207996D01*
X398574D01*
X399394Y208216D01*
X400129Y208640D01*
X400730Y209241D01*
X401154Y209976D01*
X401374Y210796D01*
Y211645D01*
X401154Y212465D01*
X400730Y213200D01*
X400129Y213801D01*
X399394Y214225D01*
X398574Y214445D01*
D02*
G37*
G36*
X388774Y214464D02*
X387919D01*
X387094Y214243D01*
X386355Y213816D01*
X385751Y213212D01*
X385324Y212473D01*
X385103Y211648D01*
Y210793D01*
X385324Y209968D01*
X385751Y209228D01*
X386355Y208625D01*
X387094Y208197D01*
X387919Y207976D01*
X388774D01*
X389599Y208197D01*
X390338Y208625D01*
X390943Y209228D01*
X391370Y209968D01*
X391591Y210793D01*
Y211648D01*
X391370Y212473D01*
X390943Y213212D01*
X390338Y213816D01*
X389599Y214243D01*
X388774Y214464D01*
D02*
G37*
G36*
X357514D02*
X356660D01*
X355834Y214243D01*
X355095Y213816D01*
X354491Y213212D01*
X354064Y212473D01*
X353842Y211648D01*
Y210793D01*
X354064Y209968D01*
X354491Y209228D01*
X355095Y208625D01*
X355834Y208197D01*
X356660Y207976D01*
X357514D01*
X358339Y208197D01*
X359079Y208625D01*
X359682Y209228D01*
X360110Y209968D01*
X360331Y210793D01*
Y211648D01*
X360110Y212473D01*
X359682Y213212D01*
X359079Y213816D01*
X358339Y214243D01*
X357514Y214464D01*
D02*
G37*
G36*
X478762Y215173D02*
X477773D01*
X476818Y214917D01*
X475962Y214423D01*
X475262Y213724D01*
X474768Y212867D01*
X474512Y211912D01*
Y210923D01*
X474768Y209968D01*
X475262Y209111D01*
X475962Y208412D01*
X476818Y207917D01*
X477773Y207662D01*
X478762D01*
X479717Y207917D01*
X480574Y208412D01*
X481273Y209111D01*
X481768Y209968D01*
X482024Y210923D01*
Y211912D01*
X481768Y212867D01*
X481273Y213724D01*
X480574Y214423D01*
X479717Y214917D01*
X478762Y215173D01*
D02*
G37*
G36*
X438762D02*
X437773D01*
X436818Y214917D01*
X435962Y214423D01*
X435262Y213724D01*
X434768Y212867D01*
X434512Y211912D01*
Y210923D01*
X434768Y209968D01*
X435262Y209111D01*
X435962Y208412D01*
X436818Y207917D01*
X437773Y207662D01*
X438762D01*
X439717Y207917D01*
X440574Y208412D01*
X441273Y209111D01*
X441768Y209968D01*
X442024Y210923D01*
Y211912D01*
X441768Y212867D01*
X441273Y213724D01*
X440574Y214423D01*
X439717Y214917D01*
X438762Y215173D01*
D02*
G37*
G36*
X398650Y204425D02*
Y201720D01*
X401354D01*
X401154Y202465D01*
X400730Y203200D01*
X400129Y203801D01*
X399394Y204225D01*
X398650Y204425D01*
D02*
G37*
G36*
X397650D02*
X396905Y204225D01*
X396170Y203801D01*
X395569Y203200D01*
X395145Y202465D01*
X394945Y201720D01*
X397650D01*
Y204425D01*
D02*
G37*
G36*
X401354Y200720D02*
X398650D01*
Y198016D01*
X399394Y198216D01*
X400129Y198640D01*
X400730Y199241D01*
X401154Y199976D01*
X401354Y200720D01*
D02*
G37*
G36*
X397650D02*
X394945D01*
X395145Y199976D01*
X395569Y199241D01*
X396170Y198640D01*
X396905Y198216D01*
X397650Y198016D01*
Y200720D01*
D02*
G37*
G36*
X429834Y204445D02*
X428985D01*
X428165Y204225D01*
X427430Y203801D01*
X426829Y203200D01*
X426405Y202465D01*
X426185Y201645D01*
Y200796D01*
X426405Y199976D01*
X426829Y199241D01*
X427430Y198640D01*
X428165Y198216D01*
X428985Y197996D01*
X429834D01*
X430654Y198216D01*
X431389Y198640D01*
X431990Y199241D01*
X432414Y199976D01*
X432634Y200796D01*
Y201645D01*
X432414Y202465D01*
X431990Y203200D01*
X431389Y203801D01*
X430654Y204225D01*
X429834Y204445D01*
D02*
G37*
G36*
X391591Y204465D02*
X385103D01*
Y197976D01*
X391591D01*
Y204465D01*
D02*
G37*
G36*
X357514D02*
X356660D01*
X355834Y204243D01*
X355095Y203816D01*
X354491Y203212D01*
X354064Y202473D01*
X353842Y201647D01*
Y200793D01*
X354064Y199968D01*
X354491Y199229D01*
X355095Y198625D01*
X355834Y198197D01*
X356660Y197976D01*
X357514D01*
X358339Y198197D01*
X359079Y198625D01*
X359682Y199229D01*
X360110Y199968D01*
X360331Y200793D01*
Y201647D01*
X360110Y202473D01*
X359682Y203212D01*
X359079Y203816D01*
X358339Y204243D01*
X357514Y204465D01*
D02*
G37*
G36*
X478762Y204976D02*
X477773D01*
X476818Y204720D01*
X475962Y204226D01*
X475262Y203527D01*
X474768Y202670D01*
X474512Y201715D01*
Y200726D01*
X474768Y199771D01*
X475262Y198914D01*
X475962Y198215D01*
X476818Y197721D01*
X477773Y197465D01*
X478762D01*
X479717Y197721D01*
X480574Y198215D01*
X481273Y198914D01*
X481768Y199771D01*
X482024Y200726D01*
Y201715D01*
X481768Y202670D01*
X481273Y203527D01*
X480574Y204226D01*
X479717Y204720D01*
X478762Y204976D01*
D02*
G37*
G36*
X438762D02*
X437773D01*
X436818Y204720D01*
X435962Y204226D01*
X435262Y203527D01*
X434768Y202670D01*
X434512Y201715D01*
Y200726D01*
X434768Y199771D01*
X435262Y198914D01*
X435962Y198215D01*
X436818Y197721D01*
X437773Y197465D01*
X438762D01*
X439717Y197721D01*
X440574Y198215D01*
X441273Y198914D01*
X441768Y199771D01*
X442024Y200726D01*
Y201715D01*
X441768Y202670D01*
X441273Y203527D01*
X440574Y204226D01*
X439717Y204720D01*
X438762Y204976D01*
D02*
G37*
%LPD*%
D27*
X496063Y368110D02*
D03*
X212598Y200787D02*
D03*
D28*
X442417Y359862D02*
D03*
X452417D02*
D03*
X462417D02*
D03*
D29*
X472417D02*
D03*
D30*
X469961Y258071D02*
D03*
Y248071D02*
D03*
Y238071D02*
D03*
Y228071D02*
D03*
X438701D02*
D03*
Y238071D02*
D03*
Y248071D02*
D03*
X469961Y324843D02*
D03*
Y314843D02*
D03*
Y304843D02*
D03*
Y294843D02*
D03*
X438701D02*
D03*
Y304843D02*
D03*
Y314843D02*
D03*
X398543Y350984D02*
D03*
Y340984D02*
D03*
Y330984D02*
D03*
Y320984D02*
D03*
Y310984D02*
D03*
Y300984D02*
D03*
Y290984D02*
D03*
X429803D02*
D03*
Y300984D02*
D03*
Y310984D02*
D03*
Y320984D02*
D03*
Y330984D02*
D03*
Y340984D02*
D03*
Y350984D02*
D03*
Y360984D02*
D03*
X429410Y271220D02*
D03*
Y261220D02*
D03*
Y251220D02*
D03*
Y241220D02*
D03*
Y231220D02*
D03*
Y221220D02*
D03*
Y211220D02*
D03*
Y201220D02*
D03*
X398150D02*
D03*
Y211220D02*
D03*
Y221220D02*
D03*
Y231220D02*
D03*
Y241220D02*
D03*
Y251220D02*
D03*
Y261220D02*
D03*
D31*
X438701Y258071D02*
D03*
Y324843D02*
D03*
X398543Y360984D02*
D03*
X398150Y271220D02*
D03*
D32*
X479095Y274409D02*
D03*
X439095D02*
D03*
Y284252D02*
D03*
X479095D02*
D03*
X478268Y201220D02*
D03*
X438268D02*
D03*
Y211417D02*
D03*
X478268D02*
D03*
D33*
X462795Y348032D02*
D03*
X472638D02*
D03*
X480315Y295079D02*
D03*
Y304921D02*
D03*
Y314764D02*
D03*
Y324606D02*
D03*
Y248228D02*
D03*
Y258071D02*
D03*
Y228150D02*
D03*
Y237992D02*
D03*
X429331Y281496D02*
D03*
X419488D02*
D03*
X429724Y370866D02*
D03*
X419882D02*
D03*
D34*
X497638Y302559D02*
D03*
Y332087D02*
D03*
X497638Y228543D02*
D03*
Y258071D02*
D03*
D35*
X388347Y291181D02*
D03*
Y201220D02*
D03*
D36*
Y301181D02*
D03*
Y311181D02*
D03*
Y321181D02*
D03*
Y331181D02*
D03*
Y341181D02*
D03*
Y351181D02*
D03*
Y361181D02*
D03*
X357087D02*
D03*
Y351181D02*
D03*
Y341181D02*
D03*
Y331181D02*
D03*
Y321181D02*
D03*
Y311181D02*
D03*
Y301181D02*
D03*
Y291181D02*
D03*
Y201220D02*
D03*
Y211220D02*
D03*
Y221220D02*
D03*
Y231220D02*
D03*
Y241220D02*
D03*
Y251220D02*
D03*
Y261220D02*
D03*
Y271220D02*
D03*
X388347D02*
D03*
Y261220D02*
D03*
Y251220D02*
D03*
Y241220D02*
D03*
Y231220D02*
D03*
Y221220D02*
D03*
Y211220D02*
D03*
D37*
X330433Y224409D02*
D03*
X291063D02*
D03*
X251693D02*
D03*
X329661Y263780D02*
D03*
X291063D02*
D03*
X251693D02*
D03*
X330433Y303150D02*
D03*
X291063D02*
D03*
X212323Y263780D02*
D03*
X330433Y342520D02*
D03*
X212323Y224409D02*
D03*
X291063Y342520D02*
D03*
X251693Y303150D02*
D03*
X212323D02*
D03*
Y342520D02*
D03*
X251693D02*
D03*
D38*
X340433Y224409D02*
D03*
X301063D02*
D03*
X261693D02*
D03*
X339661Y263780D02*
D03*
X301063D02*
D03*
X261693D02*
D03*
X340433Y303150D02*
D03*
X301063D02*
D03*
X222323Y263780D02*
D03*
X340433Y342520D02*
D03*
X222323Y224409D02*
D03*
X301063Y342520D02*
D03*
X261693Y303150D02*
D03*
X222323D02*
D03*
Y342520D02*
D03*
X261693D02*
D03*
M02*
